<?xml version="1.0" encoding="utf-8"?>
<!-- Generator: Adobe Illustrator 26.0.1, SVG Export Plug-In . SVG Version: 6.00 Build 0)  -->
<svg version="1.1" id="Layer_1" xmlns="http://www.w3.org/2000/svg" xmlns:xlink="http://www.w3.org/1999/xlink" x="0px" y="0px"
	 viewBox="0 0 283.46 178.38" style="enable-background:new 0 0 283.46 178.38;" xml:space="preserve">
<style type="text/css">
	.st0{fill:#FFFFFF;}
	.st1{fill:#1D1D1B;}
</style>
<rect x="52.54" y="-52.54" transform="matrix(-1.836970e-16 1 -1 -1.836970e-16 230.9206 -52.544)" class="st0" width="178.38" height="283.46"/>
<rect x="12.04" y="11.56" width="259.38" height="124.45"/>
<g>
	<path d="M33.19,153.23c0,1.48-0.52,2.62-1.56,3.42c-1.04,0.8-2.52,1.19-4.45,1.19h-1.77v5.75h-1.75v-14.62h3.89
		C31.31,148.97,33.19,150.39,33.19,153.23z M25.42,156.38h1.57c1.55,0,2.67-0.24,3.36-0.73c0.69-0.49,1.04-1.27,1.04-2.34
		c0-0.97-0.33-1.69-0.98-2.16c-0.65-0.47-1.66-0.71-3.04-0.71h-1.95V156.38z"/>
	<path d="M44.16,163.59l-0.34-1.56h-0.08c-0.56,0.69-1.12,1.15-1.68,1.4c-0.56,0.24-1.25,0.36-2.09,0.36
		c-1.12,0-1.99-0.28-2.62-0.84c-0.63-0.56-0.95-1.36-0.95-2.39c0-2.21,1.82-3.37,5.45-3.48l1.91-0.06v-0.68
		c0-0.86-0.19-1.5-0.57-1.91c-0.38-0.41-0.99-0.61-1.82-0.61c-0.94,0-2,0.28-3.18,0.84l-0.52-1.27c0.55-0.29,1.16-0.52,1.82-0.69
		c0.66-0.17,1.32-0.25,1.99-0.25c1.34,0,2.34,0.29,2.98,0.87c0.65,0.58,0.97,1.51,0.97,2.79v7.48H44.16z M40.31,162.42
		c1.06,0,1.89-0.28,2.5-0.85c0.61-0.57,0.91-1.36,0.91-2.38v-0.99l-1.7,0.07c-1.36,0.05-2.33,0.25-2.93,0.61
		c-0.6,0.36-0.9,0.93-0.9,1.69c0,0.6,0.19,1.06,0.56,1.37C39.12,162.26,39.64,162.42,40.31,162.42z M39.91,150.93
		c0.33-0.41,0.68-0.91,1.06-1.5c0.38-0.59,0.68-1.1,0.9-1.53h2.07v0.21c-0.3,0.43-0.75,0.97-1.35,1.6c-0.6,0.63-1.11,1.12-1.55,1.47
		h-1.14V150.93z"/>
	<path d="M58.74,163.59v-7.09c0-0.89-0.21-1.56-0.63-2c-0.42-0.44-1.07-0.66-1.96-0.66c-1.18,0-2.04,0.31-2.59,0.93
		c-0.55,0.62-0.82,1.64-0.82,3.07v5.75h-1.7v-10.96h1.39l0.28,1.5h0.08c0.35-0.54,0.84-0.96,1.47-1.25c0.63-0.3,1.33-0.45,2.11-0.45
		c1.36,0,2.38,0.32,3.06,0.96c0.68,0.64,1.03,1.66,1.03,3.05v7.15H58.74z"/>
	<path d="M73.31,160.6c0,1.02-0.39,1.81-1.17,2.36c-0.78,0.55-1.88,0.83-3.29,0.83c-1.49,0-2.66-0.23-3.49-0.69v-1.54
		c0.54,0.27,1.12,0.48,1.74,0.63c0.62,0.15,1.22,0.23,1.79,0.23c0.89,0,1.57-0.14,2.05-0.42c0.48-0.28,0.72-0.7,0.72-1.26
		c0-0.43-0.19-0.79-0.57-1.09c-0.38-0.3-1.12-0.66-2.22-1.08c-1.05-0.38-1.79-0.71-2.23-0.99c-0.44-0.28-0.77-0.6-0.99-0.97
		c-0.22-0.36-0.32-0.79-0.32-1.29c0-0.89,0.37-1.6,1.12-2.12c0.75-0.52,1.77-0.77,3.07-0.77c1.21,0,2.4,0.24,3.55,0.72l-0.61,1.35
		c-1.13-0.45-2.15-0.68-3.07-0.68c-0.81,0-1.42,0.12-1.83,0.37c-0.41,0.25-0.62,0.59-0.62,1.02c0,0.29,0.08,0.54,0.23,0.75
		s0.4,0.4,0.74,0.59c0.34,0.19,1,0.46,1.97,0.81c1.34,0.47,2.24,0.95,2.71,1.43C73.08,159.27,73.31,159.87,73.31,160.6z"/>
	<path d="M79.87,157.98c0.29-0.41,0.74-0.94,1.35-1.6l3.64-3.75h2.02l-4.56,4.67l4.88,6.29h-2.06l-3.97-5.18l-1.28,1.08v4.1h-1.68
		v-15.56h1.68v8.25c0,0.37-0.03,0.93-0.08,1.7H79.87z"/>
	<path d="M95.09,163.79c-1.66,0-2.98-0.49-3.94-1.48c-0.96-0.99-1.44-2.36-1.44-4.11c0-1.77,0.45-3.17,1.34-4.21
		c0.89-1.04,2.09-1.56,3.6-1.56c1.41,0,2.53,0.45,3.35,1.36c0.82,0.9,1.23,2.09,1.23,3.57v1.05h-7.75c0.03,1.29,0.37,2.26,1,2.93
		c0.63,0.67,1.53,1,2.68,1c1.21,0,2.41-0.25,3.59-0.74v1.48c-0.6,0.25-1.17,0.44-1.71,0.55C96.49,163.73,95.85,163.79,95.09,163.79z
		 M94.62,153.82c-0.9,0-1.62,0.29-2.16,0.86c-0.54,0.57-0.85,1.37-0.95,2.38h5.88c0-1.05-0.24-1.85-0.72-2.41
		C96.2,154.1,95.51,153.82,94.62,153.82z"/>
	<path d="M121.52,158.1c0,1.79-0.46,3.18-1.39,4.18c-0.92,1-2.2,1.5-3.83,1.5c-1.01,0-1.9-0.23-2.68-0.69
		c-0.78-0.46-1.38-1.12-1.81-1.98c-0.42-0.86-0.64-1.87-0.64-3.02c0-1.79,0.46-3.18,1.38-4.18c0.92-1,2.19-1.49,3.82-1.49
		c1.57,0,2.83,0.51,3.75,1.53C121.05,154.98,121.52,156.36,121.52,158.1z M112.94,158.1c0,1.4,0.29,2.47,0.86,3.2
		c0.58,0.73,1.42,1.1,2.54,1.1c1.12,0,1.96-0.37,2.54-1.1c0.58-0.73,0.87-1.8,0.87-3.2c0-1.39-0.29-2.45-0.87-3.17
		c-0.58-0.72-1.43-1.09-2.56-1.09c-1.12,0-1.96,0.36-2.53,1.07C113.22,155.62,112.94,156.68,112.94,158.1z"/>
	<path d="M131.84,152.45c1.48,0,2.63,0.49,3.45,1.47c0.82,0.98,1.23,2.38,1.23,4.18c0,1.8-0.41,3.2-1.24,4.19
		c-0.83,1-1.97,1.49-3.44,1.49c-0.73,0-1.4-0.13-2.01-0.39c-0.61-0.26-1.11-0.67-1.52-1.21h-0.12l-0.36,1.41h-1.22v-15.56h1.7v3.78
		c0,0.85-0.03,1.61-0.08,2.28h0.08C129.11,152.99,130.28,152.45,131.84,152.45z M131.6,153.84c-1.16,0-2,0.33-2.52,0.98
		c-0.51,0.65-0.77,1.74-0.77,3.28s0.26,2.64,0.79,3.3c0.53,0.66,1.37,1,2.54,1c1.05,0,1.83-0.37,2.34-1.11
		c0.51-0.74,0.77-1.81,0.77-3.21c0-1.43-0.26-2.49-0.77-3.19C133.47,154.19,132.67,153.84,131.6,153.84z"/>
	<path d="M143.3,163.59h-1.7v-15.56h1.7V163.59z"/>
	<path d="M153.78,163.79c-1.66,0-2.98-0.49-3.94-1.48c-0.96-0.99-1.44-2.36-1.44-4.11c0-1.77,0.45-3.17,1.34-4.21
		s2.09-1.56,3.6-1.56c1.41,0,2.53,0.45,3.35,1.36c0.82,0.9,1.23,2.09,1.23,3.57v1.05h-7.75c0.03,1.29,0.37,2.26,1,2.93
		c0.63,0.67,1.52,1,2.68,1c1.21,0,2.41-0.25,3.59-0.74v1.48c-0.6,0.25-1.17,0.44-1.71,0.55
		C155.18,163.73,154.54,163.79,153.78,163.79z M153.31,153.82c-0.9,0-1.62,0.29-2.16,0.86c-0.54,0.57-0.85,1.37-0.95,2.38h5.88
		c0-1.05-0.24-1.85-0.72-2.41C154.89,154.1,154.2,153.82,153.31,153.82z"/>
	<path d="M164.61,157.98c0.29-0.41,0.74-0.94,1.35-1.6l3.64-3.75h2.02l-4.56,4.67l4.88,6.29h-2.06l-3.97-5.18l-1.28,1.08v4.1h-1.68
		v-15.56h1.68v8.25c0,0.37-0.03,0.93-0.08,1.7H164.61z"/>
	<path d="M174.28,152.63h1.83l2.46,6.25c0.54,1.43,0.88,2.46,1.01,3.09h0.08c0.09-0.34,0.28-0.92,0.56-1.74
		c0.28-0.82,1.21-3.35,2.79-7.59h1.83L180,165.11c-0.48,1.23-1.04,2.11-1.68,2.63c-0.64,0.52-1.43,0.77-2.36,0.77
		c-0.52,0-1.03-0.06-1.54-0.17v-1.33c0.38,0.08,0.8,0.12,1.26,0.12c1.17,0,2.01-0.64,2.51-1.92l0.63-1.56L174.28,152.63z"/>
	<path d="M196.59,148.97h4.24c1.99,0,3.43,0.29,4.32,0.87c0.89,0.58,1.33,1.5,1.33,2.75c0,0.87-0.25,1.58-0.74,2.14
		c-0.5,0.56-1.22,0.93-2.17,1.1v0.1c2.28,0.38,3.42,1.55,3.42,3.5c0,1.31-0.45,2.33-1.36,3.06c-0.91,0.73-2.18,1.1-3.8,1.1h-5.24
		V148.97z M198.34,155.23h2.88c1.23,0,2.12-0.19,2.66-0.57c0.54-0.38,0.81-1.01,0.81-1.9c0-0.82-0.3-1.41-0.9-1.78
		c-0.6-0.36-1.56-0.55-2.88-0.55h-2.57V155.23z M198.34,156.67v5.47h3.13c1.21,0,2.12-0.23,2.74-0.68c0.61-0.46,0.92-1.17,0.92-2.14
		c0-0.91-0.31-1.57-0.94-2c-0.63-0.43-1.58-0.64-2.86-0.64H198.34z"/>
	<path d="M221.05,163.59l-1.87-4.65h-6.02l-1.85,4.65h-1.77l5.94-14.68h1.47l5.9,14.68H221.05z M218.64,157.41l-1.75-4.53
		c-0.23-0.57-0.46-1.28-0.7-2.11c-0.15,0.64-0.37,1.34-0.65,2.11l-1.77,4.53H218.64z"/>
	<path d="M238.05,163.59h-1.99l-8.21-12.27h-0.08c0.11,1.44,0.16,2.76,0.16,3.96v8.31h-1.61v-14.62h1.97l8.18,12.22h0.08
		c-0.01-0.18-0.04-0.76-0.09-1.73c-0.05-0.98-0.07-1.67-0.05-2.09v-8.39h1.63V163.59z"/>
	<path d="M255.74,156.14c0,2.41-0.67,4.26-2.02,5.53c-1.35,1.28-3.28,1.91-5.81,1.91h-4.16v-14.62h4.6c2.33,0,4.15,0.63,5.44,1.89
		C255.09,152.12,255.74,153.88,255.74,156.14z M253.89,156.2c0-1.91-0.49-3.34-1.47-4.31c-0.98-0.97-2.44-1.45-4.38-1.45h-2.54
		v11.68h2.13c2.08,0,3.65-0.5,4.69-1.49C253.37,159.63,253.89,158.15,253.89,156.2z"/>
	<path d="M260.31,163.59v-14.62h1.75v14.62H260.31z"/>
</g>
<path class="st1" d="M39.91,150.93c0.33-0.41,0.68-0.91,1.06-1.5c0.38-0.59,0.68-1.1,0.9-1.53h2.07v0.21
	c-0.3,0.43-0.75,0.97-1.35,1.6c-0.6,0.63-1.11,1.12-1.55,1.47h-1.14V150.93z"/>
<path class="st1" d="M93.04,150.93c0.33-0.41,0.68-0.91,1.06-1.5c0.38-0.59,0.68-1.1,0.9-1.53h2.07v0.21
	c-0.3,0.43-0.75,0.97-1.35,1.6c-0.6,0.63-1.11,1.12-1.55,1.47h-1.14V150.93z"/>
<g>
	<g>
		<path class="st0" d="M224.33,42.22h2.27c0.91,0,1.75,0.21,2.56,0.62c0.51,0.28,0.84,0.61,0.99,0.96c0.14,0.33,0.37,1.27,0.37,3.85
			l0,26.48c0,3.12-0.44,4-0.62,4.23c-0.66,0.81-1.73,1.21-3.29,1.21h-2.27v2.51h19.98v-2.51h-2.3c-0.89,0-1.73-0.21-2.54-0.64
			c-0.53-0.29-0.86-0.6-1.01-0.95c-0.14-0.33-0.36-1.26-0.36-3.85V47.65c0-2.99,0.41-3.93,0.65-4.23c0.65-0.8,1.75-1.2,3.27-1.2h2.3
			V39.7h-19.99V42.22z"/>
		<path class="st0" d="M78.92,62.88c-1.19-1.07-2.83-1.92-4.89-2.54c1.7-0.78,3.07-1.8,4.08-3.05c1.41-1.74,2.12-3.74,2.12-5.94
			c0-2.56-0.91-4.86-2.69-6.82c-1.76-1.95-4.35-3.31-7.68-4.07c-2.17-0.5-5.05-0.75-8.56-0.75H41.91v2.52h2.36
			c1.41,0,2.47,0.37,3.15,1.1c0.28,0.29,0.74,1.24,0.74,4.33l0,26.48c0,2.81-0.39,3.78-0.62,4.11c-0.64,0.9-1.71,1.33-3.27,1.33
			h-2.35v2.51h21.12c4.99,0,8.62-0.43,11.1-1.33c2.5-0.91,4.5-2.36,5.93-4.33c1.44-1.98,2.17-4.08,2.17-6.24
			C82.24,67.32,81.12,64.87,78.92,62.88z M60.74,43.13c3.74,0,6.61,0.8,8.53,2.37c1.91,1.56,2.84,3.4,2.84,5.6
			c0,1.42-0.38,2.74-1.14,3.93c-0.75,1.18-1.84,2.07-3.25,2.64c-1.44,0.59-3.69,0.9-6.69,0.9c-1.26,0-2.33-0.03-3.28-0.1
			c-0.75-0.05-1.42-0.12-2.01-0.21l0-14.61C57.23,43.3,58.88,43.13,60.74,43.13z M70.61,76.25c-1.87,1.52-4.67,2.3-8.32,2.3
			c-2.16,0-4.36-0.23-6.56-0.68l0-15.65c0.44-0.05,0.96-0.09,1.55-0.12c1.01-0.03,2.14-0.05,3.36-0.05c2.93,0,5.4,0.41,7.35,1.21
			c1.9,0.78,3.29,1.86,4.12,3.19c0.84,1.35,1.27,2.78,1.27,4.24C73.38,72.91,72.47,74.73,70.61,76.25z"/>
		<g>
			<path class="st0" d="M53.43,99c0.4-0.27,0.71-0.59,0.94-0.95c0.35-0.54,0.52-1.12,0.52-1.73c0-0.66-0.2-1.29-0.58-1.88
				c-0.38-0.6-0.92-1.05-1.61-1.34c-0.66-0.28-1.54-0.42-2.6-0.42h-5.39v13.59h5.47c0.88,0,1.64-0.08,2.25-0.22
				c0.64-0.16,1.16-0.39,1.59-0.69c0.44-0.32,0.8-0.77,1.08-1.32c0.29-0.56,0.44-1.18,0.44-1.83c0-0.82-0.25-1.55-0.73-2.16
				C54.46,99.6,54,99.25,53.43,99z M52.19,97.46c-0.19,0.24-0.47,0.42-0.86,0.53c-0.31,0.09-0.85,0.14-1.6,0.14h-2.58v-3.28h2.36
				c0.91,0,1.58,0.06,1.95,0.17c0.33,0.1,0.57,0.27,0.74,0.53c0.18,0.27,0.27,0.6,0.27,0.97C52.47,96.9,52.38,97.21,52.19,97.46z
				 M47.15,100.3h2.78c0.83,0,1.46,0.07,1.87,0.2c0.38,0.12,0.69,0.33,0.9,0.63c0.22,0.3,0.33,0.67,0.33,1.08
				c0,0.36-0.08,0.67-0.23,0.94c-0.15,0.27-0.35,0.47-0.57,0.6c-0.25,0.15-0.56,0.25-0.91,0.31c-0.14,0.02-0.48,0.06-1.16,0.06
				h-3.02V100.3z"/>
			<path class="st0" d="M68.03,92.68l-5.43,13.59h2.6l1.48-3.92h5.17l1.57,3.92h2.75l-5.78-13.59H68.03z M69.22,95.55
				c0.16,0.46,0.36,0.99,0.6,1.61l1.24,3.15h-3.62l1.31-3.37C68.93,96.48,69.08,96.02,69.22,95.55z"/>
			<path class="st0" d="M240.95,100.28c-0.4-0.58-1.03-1.06-1.87-1.43l0,0c-0.56-0.24-1.58-0.53-3.05-0.85
				c-1.81-0.39-2.37-0.7-2.54-0.85c-0.27-0.24-0.41-0.54-0.41-0.91c0-0.43,0.21-0.81,0.62-1.12c0.43-0.33,1.15-0.5,2.15-0.5
				c0.96,0,1.68,0.19,2.14,0.56c0.46,0.37,0.73,0.9,0.82,1.64l0.03,0.31l2.34-0.18l-0.01-0.3c-0.03-0.81-0.27-1.55-0.72-2.2
				c-0.45-0.66-1.09-1.15-1.9-1.48c-0.8-0.33-1.73-0.5-2.77-0.5c-0.94,0-1.81,0.16-2.6,0.47c-0.8,0.32-1.42,0.79-1.84,1.42
				c-0.42,0.61-0.63,1.28-0.63,2c0,0.65,0.18,1.25,0.52,1.78c0.35,0.52,0.87,0.97,1.57,1.32c0.53,0.27,1.43,0.55,2.68,0.84
				c1.21,0.28,2,0.48,2.36,0.62c0.5,0.18,0.86,0.41,1.07,0.66c0.2,0.25,0.3,0.54,0.3,0.87c0,0.33-0.1,0.64-0.32,0.93
				c-0.22,0.29-0.56,0.52-1.02,0.69c-0.48,0.18-1.05,0.27-1.68,0.27c-0.71,0-1.36-0.12-1.93-0.36c-0.55-0.23-0.95-0.53-1.22-0.9
				c-0.26-0.37-0.43-0.86-0.5-1.45l-0.04-0.3l-2.31,0.19l0.01,0.3c0.03,0.93,0.29,1.77,0.79,2.5c0.51,0.74,1.21,1.29,2.08,1.66
				c0.87,0.36,1.94,0.54,3.2,0.54c1,0,1.92-0.18,2.73-0.54c0.82-0.36,1.47-0.88,1.91-1.54c0.44-0.66,0.66-1.37,0.66-2.12
				C241.57,101.54,241.36,100.86,240.95,100.28z"/>
			<polygon class="st0" points="92.56,102.13 86.08,92.82 85.99,92.68 83.65,92.68 83.65,106.27 86.03,106.27 86.03,96.82 
				92.49,106.13 92.59,106.27 94.92,106.27 94.92,92.68 92.56,92.68 			"/>
			<path class="st0" d="M193.89,101.91c-0.16,0.44-0.29,0.82-0.4,1.14c-0.1-0.28-0.21-0.61-0.33-0.98l-3.19-9.18l-0.08-0.22h-3.24
				v13.59h2.37v-9.42l3.33,9.42h2.08l3.35-9.28v9.28h2.38V92.68h-2.96L193.89,101.91z"/>
			<path class="st0" d="M154.72,102.3c-0.14,0.37-0.28,0.75-0.42,1.14c-0.13-0.38-0.26-0.76-0.4-1.14l-3.5-9.41l-0.08-0.21h-2.64
				l5.45,13.52l0.03,0.07h2.28l5.53-13.59h-2.53L154.72,102.3z"/>
			<path class="st0" d="M171.05,92.68l-5.42,13.59h2.6l1.48-3.92h5.18l1.57,3.92h2.74l-5.78-13.59H171.05z M171.78,96.95
				c0.18-0.47,0.33-0.93,0.47-1.39c0.16,0.47,0.36,1,0.6,1.61l1.24,3.15h-3.62L171.78,96.95L171.78,96.95z"/>
			<path class="st0" d="M219.03,93.36c-1.05-0.6-2.24-0.9-3.53-0.9c-1.97,0-3.62,0.65-4.89,1.92c-1.26,1.27-1.89,3.05-1.89,5.27
				c0,1.18,0.27,2.31,0.81,3.37c0.54,1.08,1.35,1.93,2.4,2.55c1.05,0.62,2.25,0.93,3.57,0.93c1.21,0,2.36-0.28,3.43-0.84
				c1.06-0.56,1.9-1.4,2.48-2.49c0.57-1.07,0.86-2.31,0.86-3.67c0-1.34-0.28-2.56-0.82-3.61C220.89,94.81,220.08,93.96,219.03,93.36
				z M219.77,99.48c0,1.58-0.41,2.81-1.21,3.65c-0.8,0.84-1.83,1.26-3.07,1.26c-1.22,0-2.24-0.42-3.05-1.25
				c-0.81-0.83-1.22-2-1.22-3.47c0-1.85,0.43-3.18,1.27-3.95c0.84-0.77,1.86-1.17,3.03-1.17c0.81,0,1.56,0.2,2.23,0.61
				c0.66,0.4,1.16,0.97,1.5,1.69C219.59,97.61,219.77,98.49,219.77,99.48z"/>
			<path class="st0" d="M113.71,93.87L113.71,93.87c-0.6-0.48-1.31-0.81-2.11-0.99c-0.6-0.13-1.43-0.19-2.47-0.19h-4.96v13.59h5.19
				c0.83,0,1.59-0.08,2.25-0.22c0.69-0.17,1.25-0.4,1.71-0.7c0.48-0.31,0.9-0.72,1.31-1.25c0.4-0.54,0.73-1.2,0.96-1.98
				c0.25-0.79,0.38-1.7,0.38-2.71c0-1.18-0.19-2.26-0.55-3.2C115.03,95.28,114.46,94.49,113.71,93.87z M113.46,99.38
				c0,0.94-0.11,1.75-0.34,2.4c-0.22,0.65-0.52,1.15-0.91,1.51c-0.26,0.25-0.61,0.44-1.07,0.6c-0.48,0.15-1.15,0.23-1.99,0.23h-2.55
				v-9.27h2.51c1.02,0,1.75,0.08,2.19,0.24c0.6,0.23,1.09,0.66,1.52,1.34C113.24,97.1,113.46,98.1,113.46,99.38z"/>
			<rect x="124.94" y="92.68" class="st0" width="2.44" height="13.59"/>
		</g>
		<path class="st0" d="M122.18,73.29l-15.22-34.51h-2.08L89.48,72.93c-1.28,2.87-2.43,4.78-3.43,5.66c-0.24,0.22-0.97,0.64-3.12,1
			l-0.61,0.1v2.39H97.4v-2.46l-0.68-0.05c-2.52-0.17-3.38-0.56-3.66-0.77c-0.44-0.34-0.66-0.7-0.66-1.1c0-0.48,0.18-1.44,1.03-3.3
			l2.74-6.04h15.75l2.42,5.46c0.81,1.84,1.22,3.16,1.22,3.93c0,0.46-0.2,0.82-0.63,1.15c-0.28,0.21-1.05,0.58-3.07,0.67l-0.7,0.03
			v2.47h16.47V79.5c-1.09-0.17-1.64-0.56-2.33-1.13C124.66,77.85,123.61,76.55,122.18,73.29z M98.44,64.73l6.39-14.08l6.23,14.08
			H98.44z"/>
		<path class="st0" d="M140.07,78.55c-0.25-0.28-0.68-1.2-0.68-4.26l0-23.3l27.04,31.33h2.59l0-34.82c0-2.82,0.36-3.73,0.56-4.02
			c0.63-0.85,1.7-1.27,3.28-1.27h2.27V39.7h-16.51v2.52h2.23c1.49,0,2.53,0.34,3.18,1.04c0.21,0.22,0.7,1.09,0.7,4.25v21.68
			L139.42,39.7h-11v2.52h0.14c0.74,0,0.85,0.01,1.02,0.02c0.79,0.03,1.26,0.25,1.71,0.48c0.55,0.29,0.96,0.64,1.27,0.87
			c0.4,0.3,1.18,0.94,2.55,2.45l0,28.25c0,2.82-0.35,3.72-0.56,4c-0.63,0.86-1.72,1.28-3.32,1.28h-1.75v2.51h16.02v-2.51h-2.25
			C141.78,79.58,140.71,79.23,140.07,78.55z"/>
		<path class="st0" d="M216.3,75.46c3.76-3.95,5.67-8.92,5.67-14.77c0-4.34-1.07-8.25-3.18-11.61c-2.13-3.36-4.98-5.79-8.46-7.23
			c-3.47-1.42-8.52-2.15-15.03-2.15h-18.31v2.52h2.35c1.41,0,2.47,0.37,3.14,1.09c0.21,0.23,0.71,1.12,0.71,4.34l0,26.48
			c0,2.83-0.37,3.77-0.59,4.09c-0.62,0.91-1.69,1.35-3.26,1.35h-2.36v2.51h20.03C205.59,82.08,212.07,79.85,216.3,75.46z
			 M190.77,77.87l0.01-33.74c2.14-0.48,4.09-0.73,5.8-0.73c4.93,0,8.85,1.53,11.98,4.68c3.1,3.11,4.68,7.45,4.68,12.9
			c0,5.41-1.58,9.74-4.68,12.88c-3.13,3.17-6.97,4.71-11.73,4.71C195.17,78.58,193.14,78.34,190.77,77.87z"/>
		<path class="st0" d="M257.34,29.16c-0.5-0.86-1.19-1.52-2.08-1.98c-0.89-0.46-1.8-0.69-2.73-0.69c-0.94,0-1.85,0.23-2.73,0.69
			c-0.89,0.46-1.59,1.12-2.08,1.98c-0.49,0.86-0.74,1.75-0.74,2.68c0,0.92,0.24,1.81,0.74,2.66c0.49,0.85,1.18,1.51,2.06,1.98
			c0.88,0.47,1.8,0.71,2.77,0.71c0.96,0,1.88-0.23,2.76-0.71c0.88-0.47,1.57-1.13,2.06-1.98c0.49-0.85,0.73-1.73,0.73-2.66
			C258.08,30.91,257.83,30.02,257.34,29.16z M256.55,34.06c-0.41,0.7-0.98,1.26-1.71,1.65c-0.74,0.39-1.51,0.59-2.3,0.59
			c-0.8,0-1.57-0.2-2.31-0.59c-0.73-0.4-1.3-0.95-1.72-1.65c-0.41-0.71-0.61-1.45-0.61-2.21c0-0.77,0.21-1.52,0.62-2.23
			c0.42-0.72,1-1.27,1.74-1.65c0.74-0.38,1.5-0.58,2.28-0.58c0.77,0,1.53,0.2,2.27,0.58c0.74,0.39,1.32,0.94,1.73,1.65
			c0.41,0.71,0.62,1.46,0.62,2.23C257.16,32.61,256.96,33.35,256.55,34.06z"/>
		<path class="st0" d="M251.2,31.48h1.42c0.3,0,0.54-0.03,0.71-0.1c0.17-0.07,0.3-0.17,0.39-0.32c0.09-0.14,0.13-0.3,0.13-0.47
			c0-0.25-0.09-0.45-0.26-0.61c-0.17-0.16-0.44-0.24-0.82-0.24l-1.58,0V31.48z M253.29,32.15c0.17,0.07,0.55,0.31,0.99,0.99
			c0.6,0.93,1.01,1.57,1.01,1.57h-1.19l-0.67-1.15c-0.21-0.33-0.38-0.59-0.51-0.77c-0.13-0.18-0.25-0.3-0.36-0.37
			c-0.11-0.07-0.21-0.12-0.32-0.15c-0.08-0.02-0.21-0.03-0.39-0.03h-0.65v2.47h-0.92v-5.75h2.56c0.49,0,0.87,0.05,1.13,0.16
			c0.26,0.1,0.46,0.29,0.62,0.55c0.15,0.26,0.23,0.56,0.23,0.88c0,0.41-0.13,0.76-0.38,1.04c-0.25,0.28-0.71,0.46-1.23,0.54
			L253.29,32.15z"/>
	</g>
</g>
</svg>
