<svg xmlns:xlink="http://www.w3.org/1999/xlink" xmlns="http://www.w3.org/2000/svg" width="197.875" height="47" viewBox="0 0 197.875 47"><g transform="translate(-54.68 -51.632)"><path d="M91.463,68.994a17.466,17.466,0,0,0-13.08,2.053,17.465,17.465,0,0,0-10.77-7.7c-.073-.017-.146-.029-.22-.045a17.486,17.486,0,0,0-3.812-.427c-.263,0-.525.016-.786.027a17.518,17.518,0,0,0-8.116,2.414l.112.022A34.667,34.667,0,0,1,76.124,80.585a35.482,35.482,0,0,1,4.822-2.421,34.508,34.508,0,0,1,21.082-1.642.9.9,0,0,1,.111.027A17.435,17.435,0,0,0,91.463,68.994Z" transform="translate(0 -2.884)" fill="#c70018"/><path d="M72.83,58.775a14.024,14.024,0,0,1,18.826,3.453l5.384-2.483A18.567,18.567,0,0,0,67.795,57.89a19.755,19.755,0,0,1,3.685.5C71.936,58.5,72.385,58.636,72.83,58.775Z" transform="translate(-3.378 0)" fill="#c70018"/><path d="M74.781,88.26a13.781,13.781,0,0,1-9.589-14.906,32.125,32.125,0,0,0-3.354-1.719A18.6,18.6,0,0,0,90.268,90.952L86.45,86.8A13.943,13.943,0,0,1,74.781,88.26Z" transform="translate(-1.744 -5.126)" fill="#c70018"/><path d="M132.391,56.752h8.251l.538-2.442h-14.6L118.866,88.49h6.347l3.858-17.138,5.713.439.635-2.832-5.909.488Z" transform="translate(-16.483 -0.69)" fill="#c70018"/><path d="M149.94,86.048h-.782c-1.611,0-1.416-1.221-.928-3.467l6.445-28.271h-6.4l-6.3,27.978c-1.073,4.688-.634,6.2,4.591,6.2H149.4Z" transform="translate(-22.3 -0.69)" fill="#c70018"/><path d="M161.2,87.294l.976-13.329H156.12L155.144,93.3h2.441l-6.3,8.837L155,104.09,171.452,74.6l-3.613-1.612Z" transform="translate(-24.809 -5.458)" fill="#c70018"/><path d="M202.437,54.311,195.65,84.193l-2.342.927c-1.368.537-2.149-.049-1.856-1.417l6.591-29.393H191.7l-6.738,29.735c-1.123,5.078,2.978,5.615,6.787,4.2l3.271-1.221-.341,1.465h6.347l7.764-34.179Z" transform="translate(-33.405 -0.69)" fill="#c70018"/><path d="M227.119,73.711a8.61,8.61,0,0,0-3.321.683l-3.369,1.466.391-1.709h-6.346l-4.4,19.336h6.348L219.844,78.4l2.441-.878c1.367-.489,1.709.048,1.417,1.416l-3.272,14.551h6.347l3.37-14.893C230.927,75.03,229.414,73.711,227.119,73.711Z" transform="translate(-39.907 -5.661)" fill="#c70018"/><path d="M240.58,74.3l-4.394,19.335h6.347L246.929,74.3Z" transform="translate(-46.619 -5.813)" fill="#c70018"/><path d="M245.888,68.88a4.95,4.95,0,0,0,4.43-3.477,2.624,2.624,0,0,0-2.59-3.477,4.8,4.8,0,0,0-4.363,3.477A2.561,2.561,0,0,0,245.888,68.88Z" transform="translate(-48.43 -2.643)" fill="#c70018"/><path d="M256.542,84.817l2.491-10.986h3.857l.537-2.441h-3.808l1.9-8.4h-6.4l-4.833,21.532c-1.074,4.688-.635,6.2,4.59,6.2h4.15l.537-2.442h-2.1C255.859,88.284,256.054,87.063,256.542,84.817Z" transform="translate(-50.118 -2.907)" fill="#c70018"/><path d="M272.451,85.093h9.716l1.026-4.589c1.025-4.687.585-6.2-4.64-6.2h-3.711c-5.223,0-6.64,1.562-7.665,6.2l-1.563,6.933c-1.074,4.688-.634,6.2,4.59,6.2h9.717l.536-2.442h-7.664c-1.613,0-1.417-1.221-.928-3.467Zm1.172-4.882c.683-2.881.976-3.467,2.783-3.467,1.611,0,1.611.635.977,3.467l-.538,2.442h-3.808Z" transform="translate(-54.026 -5.813)" fill="#c70018"/><path d="M306.405,54.311l-3.37,14.843h-4.1c-5.225,0-6.64,1.563-7.666,6.2l-1.953,8.691c-.782,3.565.683,4.882,2.978,4.882a8.766,8.766,0,0,0,3.32-.683l3.467-1.514-.391,1.758h6.347l7.716-34.179Zm-6.788,29.931-2.49.879c-1.416.488-1.708-.049-1.416-1.417l2-8.642c.538-2.246,1.074-3.467,2.783-3.467h2Z" transform="translate(-60.198 -0.69)" fill="#c70018"/></g></svg>