<?xml version="1.0" encoding="UTF-8" standalone="no"?>
<!DOCTYPE svg PUBLIC "-//W3C//DTD SVG 1.1//EN" "http://www.w3.org/Graphics/SVG/1.1/DTD/svg11.dtd">
<svg xmlns="http://www.w3.org/2000/svg" xmlns:xlink="http://www.w3.org/1999/xlink" version="1.1" width="212.195pt" height="185.976pt" viewBox="0 0 212.195 185.976">
<g enable-background="new">
<g id="Layer-1" data-name="Vrstva 1">
<clipPath id="cp0">
<path transform="matrix(1,0,0,-1,0,185.976)" d="M 0 185.976 L 212.195 185.976 L 212.195 0 L 0 0 Z "/>
</clipPath>
<g clip-path="url(#cp0)">
<path transform="matrix(1,0,0,-1,103.9321,35.634706)" d="M 0 0 C 0 -1.891 -1.533 -4.501 -3.423 -4.501 C -5.314 -4.501 -6.847 -2.968 -6.847 -1.078 C -6.847 .814 -5.314 2.347 -3.423 2.347 C -1.533 2.347 0 1.891 0 0 " fill="#42ada2"/>
<path transform="matrix(1,0,0,-1,114.3921,49.2079)" d="M 0 0 C -1.396 .82 -2.662 3.084 -1.843 4.482 C -1.021 5.88 .775 6.349 2.174 5.528 C 3.57 4.709 4.039 2.911 3.22 1.514 C 2.398 .116 1.396 -.819 0 0 " fill="#42ada2"/>
<path transform="matrix(1,0,0,-1,112.603,33.77339)" d="M 0 0 C -.89 -1.378 -3.355 -2.482 -4.879 -1.497 C -6.402 -.513 -6.915 1.403 -6.022 2.781 C -5.132 4.159 -3.175 4.479 -1.651 3.494 C -.128 2.509 .891 1.379 0 0 " fill="#42ada2"/>
<path transform="matrix(1,0,0,-1,110.644,50.5551)" d="M 0 0 C -.848 -1.31 -3.188 -2.357 -4.635 -1.422 C -6.082 -.487 -6.567 1.333 -5.721 2.642 C -4.875 3.951 -3.016 4.253 -1.568 3.318 C -.123 2.383 .848 1.31 0 0 " fill="#42ada2"/>
<path transform="matrix(1,0,0,-1,119.0835,39.214296)" d="M 0 0 C 0 -1.718 -1.525 -2.056 -3.243 -2.056 C -4.963 -2.056 -6.354 -.664 -6.354 1.054 C -6.354 2.773 -3.961 3.685 -2.243 3.685 C -.523 3.685 0 1.717 0 0 " fill="#42ada2"/>
<path transform="matrix(1,0,0,-1,102.7319,45.373)" d="M 0 0 C .237 -1.595 -1.133 -2.118 -2.729 -2.355 C -4.322 -2.591 -5.807 -1.49 -6.044 .104 C -6.281 1.698 -4.184 2.875 -2.589 3.111 C -.995 3.348 -.237 1.595 0 0 " fill="#42ada2"/>
<path transform="matrix(1,0,0,-1,69.5718,153.6528)" d="M 0 0 L -1.365 0 L -4.097 6.867 L -4.097 0 L -6.012 0 L -6.012 9.371 L -3.188 9.371 L -.67 2.838 L 1.939 9.371 L 4.713 9.371 L 4.713 0 L 2.798 0 L 2.798 6.842 Z " fill="#42ada2"/>
<path transform="matrix(1,0,0,-1,86.2515,153.6528)" d="M 0 0 L -.604 1.74 L -3.938 1.74 L -4.564 0 L -6.693 0 L -2.865 9.371 L -1.312 9.371 L 2.208 0 Z M -3.375 3.307 L -1.14 3.307 L -2.225 6.453 L -2.236 6.453 Z " fill="#42ada2"/>
<path transform="matrix(1,0,0,-1,98.6343,148.8598)" d="M 0 0 L 3.467 -4.793 L .948 -4.793 L -1.313 -1.594 L -3.575 -4.793 L -5.984 -4.793 L -2.53 -.082 L -5.879 4.578 L -3.36 4.578 L -1.205 1.498 L .978 4.578 L 3.373 4.578 Z " fill="#42ada2"/>
<path transform="matrix(1,0,0,-1,0,185.976)" d="M 107.175 41.694 L 109.091 41.694 L 109.091 32.322999 L 107.175 32.322999 Z " fill="#42ada2"/>
<path transform="matrix(1,0,0,-1,121.2046,153.6528)" d="M 0 0 L -1.365 0 L -4.097 6.867 L -4.097 0 L -6.013 0 L -6.013 9.371 L -3.188 9.371 L -.67 2.838 L 1.939 9.371 L 4.713 9.371 L 4.713 0 L 2.798 0 L 2.798 6.842 Z " fill="#42ada2"/>
<path transform="matrix(1,0,0,-1,139.5308,149.2348)" d="M 0 0 C 0 -2.947 -1.125 -4.58 -3.803 -4.58 C -6.427 -4.58 -7.551 -2.947 -7.551 0 L -7.551 4.953 L -5.638 4.953 L -5.638 -.254 C -5.638 -2.049 -4.914 -2.906 -3.775 -2.906 C -2.639 -2.906 -1.914 -2.049 -1.914 -.254 L -1.914 4.953 L 0 4.953 Z " fill="#42ada2"/>
<path transform="matrix(1,0,0,-1,148.8882,145.7543)" d="M 0 0 C -.645 0 -1.22 -.322 -1.22 -.937 C -1.22 -1.66 -.336 -1.861 .388 -2.115 C 1.713 -2.57 3.306 -3.186 3.306 -5.154 C 3.306 -7.187 1.392 -8.059 -.242 -8.059 C -1.687 -8.059 -2.813 -7.51 -3.83 -6.492 L -2.559 -5.248 C -1.795 -5.982 -1.205 -6.426 -.229 -6.426 C .521 -6.426 1.259 -6.064 1.259 -5.234 C 1.259 -4.432 .4 -4.123 -.551 -3.775 C -1.77 -3.318 -3.134 -2.785 -3.134 -.99 C -3.134 .789 -1.621 1.633 -.066 1.633 C 1.138 1.633 2.086 1.244 3.038 .521 L 1.939 -.844 C 1.418 -.402 .723 0 0 0 " fill="#42ada2"/>
<path transform="matrix(1,0,0,-1,84.1899,65.6757)" d="M 0 0 L 0 -59.061 L 5.405 -59.061 L 5.405 -22.729 L 12.192 -22.729 L 12.192 -17.324 L 5.405 -17.324 L 5.405 -5.395 L 14.063 -5.395 L 14.063 .01 Z " fill="#42ada2"/>
<path transform="matrix(1,0,0,-1,163.314,65.6689)" d="M 0 0 L 0 -5.406 L 5.689 -5.406 L 5.689 -59.087 L 11.097 -59.087 L 11.097 -5.448 L 16.787 -5.448 L 16.787 -.043 Z " fill="#42ada2"/>
<path transform="matrix(1,0,0,-1,135.5962,65.6669)" d="M 0 0 L 0 -24.795 C 0 -30.373 2.131 -36.457 2.131 -36.457 C 2.131 -36.457 2.251 -36.74 2.048 -36.839 C 1.838 -36.941 1.702 -36.792 1.658 -36.707 C 1.658 -36.707 .819 -34.517 -.206 -32.382 C -1.394 -29.908 -2.767 -27.404 -3.079 -26.827 C -6.777 -19.958 -10.387 -13.39 -10.517 -3.983 L -10.593 0 L -15.675 0 L -15.675 -.068 L -15.675 -3.983 L -15.675 -59.089 L -10.271 -59.089 L -10.271 -33.296 C -10.271 -26.896 -12.241 -21.146 -12.241 -21.146 C -12.263 -21.106 -12.355 -20.86 -12.136 -20.761 C -11.889 -20.649 -11.771 -20.896 -11.771 -20.896 C -11.771 -20.896 -10.94 -22.876 -10.068 -24.771 C -9.108 -26.857 -7.978 -29.13 -7.838 -29.388 C -3.751 -36.978 .171 -44.517 .353 -55.775 L .395 -59.087 L 5.513 -59.089 L 5.513 -59.072 L 5.513 -55.775 L 5.513 0 Z " fill="#42ada2"/>
<path transform="matrix(1,0,0,-1,69.6792,65.6669)" d="M 0 0 L 0 -24.795 C 0 -30.373 2.131 -36.457 2.131 -36.457 C 2.131 -36.457 2.25 -36.74 2.048 -36.839 C 1.839 -36.941 1.702 -36.792 1.658 -36.707 C 1.658 -36.707 .816 -34.517 -.207 -32.382 C -1.395 -29.908 -2.768 -27.404 -3.08 -26.827 C -6.776 -19.958 -10.388 -13.39 -10.518 -3.983 L -10.594 0 L -15.676 0 L -15.676 -.068 L -15.676 -3.983 L -15.676 -59.089 L -10.271 -59.089 L -10.271 -33.296 C -10.271 -26.896 -12.241 -21.146 -12.241 -21.146 C -12.264 -21.106 -12.355 -20.86 -12.137 -20.761 C -11.89 -20.649 -11.771 -20.896 -11.771 -20.896 C -11.771 -20.896 -10.939 -22.876 -10.067 -24.771 C -9.107 -26.857 -7.979 -29.13 -7.838 -29.388 C -3.752 -36.978 .172 -44.517 .353 -55.775 L .395 -59.087 L 5.513 -59.089 L 5.513 -59.072 L 5.513 -55.775 L 5.513 0 Z " fill="#42ada2"/>
<path transform="matrix(1,0,0,-1,156.1812,66.161998)" d="M 0 0 L -.106 .494 L -5.362 .495 L -5.236 .006 C -2.645 -10.836 -2.546 -20.683 -4.945 -29.258 C -7.6 -38.604 -7.787 -48.538 -5.49 -57.979 L -5.343 -58.594 L -.106 -58.594 L -.253 -57.985 C -2.553 -48.54 -2.364 -38.602 .291 -29.25 C 2.951 -19.741 2.3 -9.617 0 0 " fill="#42ada2"/>
<path transform="matrix(1,0,0,-1,109.7417,66.161998)" d="M 0 0 L -.105 .494 L -5.361 .495 L -5.235 .006 C -2.643 -10.836 -2.545 -20.683 -4.944 -29.258 C -7.6 -38.604 -7.787 -48.538 -5.488 -57.979 L -5.342 -58.594 L -.105 -58.594 L -.252 -57.985 C -2.552 -48.54 -2.363 -38.602 .293 -29.25 C 2.952 -19.741 2.301 -9.617 0 0 " fill="#42ada2"/>
<path transform="matrix(1,0,0,-1,42.7378,66.161998)" d="M 0 0 L -.106 .494 L -5.363 .495 L -5.236 .006 C -2.645 -10.836 -2.546 -20.683 -4.945 -29.258 C -7.6 -38.604 -7.789 -48.538 -5.49 -57.979 L -5.343 -58.594 L -.106 -58.594 L -.254 -57.985 C -2.554 -48.54 -2.364 -38.602 .291 -29.25 C 2.951 -19.741 2.3 -9.617 0 0 " fill="#42ada2"/>
</g>
</g>
</g>
</svg>
