<?xml version="1.0" encoding="UTF-8" standalone="no"?>
<!DOCTYPE svg PUBLIC "-//W3C//DTD SVG 1.1//EN" "http://www.w3.org/Graphics/SVG/1.1/DTD/svg11.dtd">
<svg xmlns="http://www.w3.org/2000/svg" xmlns:xlink="http://www.w3.org/1999/xlink" version="1.1" width="322pt" height="344pt" viewBox="0 0 322 344">
<g enable-background="new">
<g id="Layer-1" data-name="Layer 1">
<clipPath id="cp0">
<path transform="matrix(1,0,0,-1,0,344)" d="M 0 344 L 322 344 L 322 0 L 0 0 Z "/>
</clipPath>
<g clip-path="url(#cp0)">
<path transform="matrix(1,0,0,-1,218.4512,269.625)" d="M 0 0 C -.089 -.023 -.207 .061 -.217 .178 C -.229 1.244 .385 2.367 1.312 2.627 C 1.929 2.799 2.75 2.244 2.924 1.625 C 3.071 1.096 2.713 .758 2.36 .66 C 1.258 .352 .58 .139 0 0 M 6.334 -3.178 C 5.946 -4.428 5.15 -5.578 3.341 -6.084 C .803 -6.793 -1.277 -5.305 -1.98 -2.789 C -2.474 -1.023 -1.996 1.014 -.398 2.363 C .079 2.781 .697 3.121 1.293 3.287 C 2.176 3.533 3.179 3.434 3.913 3.02 C 4.556 2.678 5.078 2.086 5.294 1.312 C 5.338 1.158 5.221 .723 4.957 .648 C 4.691 .574 1.184 -.406 .146 -.695 C .036 -.727 -.056 -.824 -.053 -.918 C -.07 -1.113 .007 -1.473 .08 -1.736 C .217 -2.223 .765 -3.164 1.338 -3.598 C 2.087 -4.15 3.125 -4.289 4.095 -4.018 C 5.021 -3.758 5.6 -3.359 5.865 -2.689 C 5.916 -2.533 5.99 -2.369 6.078 -2.346 C 6.166 -2.32 6.32 -2.443 6.357 -2.576 C 6.395 -2.709 6.396 -2.971 6.334 -3.178 M -3.865 -6.418 C -4.447 -7.391 -5.591 -8.371 -6.978 -8.678 C -8.611 -9.039 -10.051 -8.465 -10.885 -7.664 C -11.486 -7.07 -11.994 -6.15 -12.197 -5.232 C -12.582 -3.488 -11.97 -2.016 -10.82 -.846 C -10.156 -.135 -8.773 .615 -7.879 .812 C -7.207 .961 -6.049 1.029 -5.578 .807 C -5.242 .668 -5.084 .375 -5.02 .084 C -4.931 -.318 -5.525 -1.131 -5.66 -1.16 C -5.861 -1.205 -6.254 -1.127 -6.812 -.828 C -7.525 -.469 -8.098 -.104 -8.792 -.256 C -9.038 -.311 -9.389 -.529 -9.645 -.961 C -10.076 -1.666 -10.142 -2.854 -9.914 -3.883 C -9.588 -5.359 -8.821 -5.965 -8.68 -6.074 C -8.125 -6.561 -7.182 -7.01 -5.975 -6.742 C -5.325 -6.6 -4.646 -6.168 -3.99 -5.529 C -3.893 -5.437 -3.699 -5.465 -3.659 -5.645 C -3.609 -5.869 -3.725 -6.199 -3.865 -6.418 M -13.898 -9.918 C -14.057 -9.945 -15.287 -10.094 -15.783 -10.182 C -16.506 -10.309 -17.572 -10.592 -17.957 -10.66 C -18.317 -10.723 -18.612 -10.637 -18.641 -10.479 C -18.668 -10.32 -18.531 -10.18 -18.125 -9.969 C -17.612 -9.715 -17.412 -9.398 -17.406 -9.166 C -17.372 -8.834 -17.611 -7.223 -17.895 -5.621 C -17.979 -5.146 -18.207 -3.861 -18.299 -3.598 C -18.354 -3.422 -18.665 -3.244 -19.211 -2.922 C -19.37 -2.811 -19.525 -2.721 -19.545 -2.607 C -19.578 -2.428 -19.361 -2.203 -19.012 -2.072 C -18.119 -1.727 -16.793 -.934 -16.447 -.779 C -16.335 -.76 -16.19 -.92 -16.178 -.988 C -16.088 -1.764 -15.619 -4.799 -15.388 -6.107 C -15.264 -6.807 -15.102 -7.594 -14.938 -8.379 C -14.797 -9.053 -14.51 -9.094 -13.891 -9.172 C -13.532 -9.225 -13.35 -9.332 -13.318 -9.512 C -13.286 -9.693 -13.582 -9.861 -13.898 -9.918 M -21.877 -2.705 C -22.375 -2.955 -22.658 -3.27 -22.961 -3.957 C -23.386 -5.121 -23.842 -6.752 -24.263 -8.311 C -24.71 -10.01 -24.779 -10.365 -24.986 -11.432 C -25.055 -11.787 -25.364 -12.082 -25.545 -12.105 C -25.658 -12.121 -25.815 -11.98 -25.939 -11.742 C -26.16 -11.285 -26.42 -10.719 -27.138 -9.473 C -27.896 -8.092 -29.467 -5.455 -30.051 -4.699 C -30.303 -4.363 -30.552 -4.049 -31.144 -3.941 C -31.502 -3.85 -31.719 -3.785 -31.746 -3.582 C -31.764 -3.445 -31.44 -3.264 -31.145 -3.227 C -30.872 -3.189 -29.039 -3.066 -28.768 -3.029 C -28.176 -2.953 -27.48 -2.793 -27.186 -2.754 C -26.822 -2.705 -26.625 -2.795 -26.604 -2.955 C -26.584 -3.113 -26.765 -3.322 -27.094 -3.457 C -27.644 -3.668 -27.614 -3.896 -27.401 -4.283 C -26.674 -5.783 -25.356 -7.898 -25.136 -8.17 C -25.053 -8.275 -24.994 -8.197 -24.96 -8.102 C -24.77 -7.613 -24.056 -4.77 -23.921 -4.035 C -23.816 -3.422 -24.031 -3.195 -24.762 -3.084 C -24.976 -3.041 -25.24 -2.961 -25.264 -2.779 C -25.282 -2.643 -25.096 -2.48 -24.732 -2.432 C -24.459 -2.396 -23.905 -2.393 -23.473 -2.336 C -23.02 -2.277 -22.42 -2.084 -21.966 -2.023 C -21.716 -1.99 -21.432 -2.047 -21.41 -2.205 C -21.39 -2.363 -21.485 -2.516 -21.877 -2.705 M -34.063 -11.992 C -34.947 -12.727 -36.09 -13.094 -37.141 -13.176 C -38.168 -13.258 -39.485 -12.879 -40.387 -12.236 C -41.432 -11.516 -42.275 -10.133 -42.377 -8.854 C -42.503 -7.256 -41.891 -5.988 -41.08 -5.189 C -40.441 -4.541 -39.22 -3.709 -37.529 -3.576 C -35.245 -3.396 -32.569 -4.979 -32.335 -7.947 C -32.182 -9.889 -33.26 -11.377 -34.063 -11.992 M -44.021 -13.533 C -44.57 -13.547 -46.085 -13.447 -47.275 -13.5 L -48.375 -13.549 C -48.626 -13.557 -48.972 -13.496 -48.978 -13.244 C -48.98 -13.105 -48.869 -13.012 -48.482 -12.887 C -48.142 -12.764 -48.031 -12.578 -48.197 -12.354 C -48.814 -11.521 -49.38 -10.869 -50.492 -9.453 C -50.729 -9.162 -50.847 -9.004 -50.938 -9.006 C -51.031 -9.008 -51.027 -9.123 -51.048 -9.215 C -51.133 -9.469 -51.057 -11.621 -50.953 -12.1 C -50.875 -12.533 -50.776 -12.783 -50.131 -12.928 C -49.878 -12.99 -49.645 -13.145 -49.643 -13.26 C -49.635 -13.559 -50 -13.613 -50.252 -13.619 C -50.824 -13.633 -51.857 -13.59 -52.43 -13.604 C -53.23 -13.623 -54.213 -13.74 -54.512 -13.746 C -54.992 -13.758 -55.156 -13.648 -55.16 -13.465 C -55.165 -13.258 -54.801 -13.135 -54.506 -13.035 C -53.824 -12.813 -53.623 -12.602 -53.569 -11.982 C -53.557 -11.547 -53.508 -7.947 -53.582 -4.947 C -53.656 -1.992 -53.76 -.527 -53.845 .111 C -53.871 .271 -53.99 .43 -54.547 .736 C -54.779 .846 -54.923 1.094 -54.926 1.209 C -54.928 1.277 -54.77 1.395 -54.564 1.445 C -53.836 1.625 -52.449 2.049 -51.884 2.383 C -51.658 2.504 -51.522 2.598 -51.408 2.602 C -51.34 2.604 -51.174 2.4 -51.194 2.309 C -51.293 1.641 -51.246 -3.973 -51.19 -6.217 C -51.177 -6.766 -51.167 -8.096 -51.068 -8.391 C -51.043 -8.504 -50.996 -8.527 -50.881 -8.523 C -50.79 -8.521 -50.678 -8.404 -50.521 -8.264 C -49.848 -7.674 -48.465 -6.172 -48.064 -5.658 C -47.976 -5.541 -47.914 -5.266 -48.696 -5.146 C -49.019 -5.086 -49.182 -4.953 -49.186 -4.838 C -49.188 -4.701 -48.964 -4.512 -48.734 -4.506 L -47.773 -4.482 C -46.398 -4.449 -45.076 -4.164 -44.458 -4.148 C -44.344 -4.146 -44.25 -4.213 -44.248 -4.326 C -44.24 -4.602 -44.623 -4.863 -44.715 -4.889 C -46.035 -5.219 -46.557 -5.484 -47.523 -6.24 C -47.951 -6.549 -48.756 -7.348 -48.865 -7.58 C -48.887 -7.627 -48.885 -7.74 -48.885 -7.74 C -48.551 -8.236 -46.139 -11.271 -45.317 -12.053 C -44.873 -12.432 -44.523 -12.652 -43.9 -12.797 C -43.531 -12.902 -43.322 -13.059 -43.319 -13.15 C -43.313 -13.424 -43.585 -13.523 -44.021 -13.533 M -19.258 3.123 C -19.031 3.418 -18.629 3.652 -18.201 3.729 C -17.41 3.869 -16.849 3.061 -16.757 2.541 C -16.625 1.797 -17.303 1.023 -17.867 .924 C -18.07 .889 -18.545 .943 -18.838 1.148 C -19.104 1.334 -19.362 1.613 -19.442 2.064 C -19.49 2.336 -19.457 2.807 -19.258 3.123 M -57.091 -11.088 C -57.173 -11.59 -57.707 -12.723 -57.864 -13.428 C -57.889 -13.52 -58.078 -13.744 -58.216 -13.74 C -58.354 -13.736 -61.899 -13.504 -62.977 -13.475 C -63.984 -13.449 -64.697 -13.521 -65.224 -13.529 C -65.292 -13.529 -65.494 -13.363 -65.489 -13.156 C -65.484 -13.02 -64.674 -11.85 -63.96 -10.836 C -63.246 -9.848 -61.803 -7.295 -60.749 -5.605 C -60.701 -5.537 -60.675 -5.4 -60.766 -5.375 C -60.949 -5.348 -62.16 -5.223 -63.214 -5.195 C -63.42 -5.189 -64.173 -5.926 -64.674 -6.691 C -64.816 -6.871 -64.938 -7.074 -65.098 -7.07 C -65.258 -7.066 -65.389 -6.834 -65.337 -6.605 C -65.309 -6.4 -65.256 -6.148 -65.133 -5.809 C -64.982 -5.354 -64.896 -4.67 -64.885 -4.279 C -64.883 -4.166 -64.882 -4.143 -64.765 -4.053 C -64.625 -3.965 -64.533 -3.969 -64.465 -3.992 C -64.15 -4.23 -63.629 -4.451 -63.217 -4.461 L -61.041 -4.52 C -59.393 -4.564 -58.359 -4.5 -57.855 -4.514 C -57.764 -4.516 -57.604 -4.564 -57.515 -4.637 C -57.425 -4.707 -57.452 -4.867 -57.5 -4.957 C -57.715 -5.25 -58.145 -5.902 -58.693 -6.713 C -59.336 -7.613 -61.115 -10.705 -62.119 -12.307 C -62.214 -12.396 -62.102 -12.514 -62.034 -12.537 C -61.875 -12.611 -60.572 -12.738 -59.68 -12.762 C -59.473 -12.768 -59.241 -12.658 -59.099 -12.479 C -58.934 -12.322 -58.25 -11.607 -57.848 -11.113 C -57.586 -10.754 -57.398 -10.621 -57.308 -10.625 C -57.102 -10.629 -57.064 -10.951 -57.091 -11.088 M -67.811 -8.754 C -67.963 -10.695 -69.26 -11.996 -70.147 -12.479 C -71.136 -13.066 -72.322 -13.25 -73.373 -13.168 C -74.4 -13.088 -75.643 -12.508 -76.432 -11.734 C -77.352 -10.857 -77.971 -9.361 -77.871 -8.082 C -77.746 -6.482 -76.943 -5.328 -76.018 -4.664 C -75.286 -4.125 -73.949 -3.494 -72.26 -3.625 C -69.975 -3.805 -67.578 -5.783 -67.811 -8.754 M -80.999 -12.266 C -81.544 -12.189 -82.424 -12.023 -83.059 -11.938 C -83.627 -11.859 -84.544 -11.805 -84.862 -11.762 C -85.18 -11.717 -85.466 -11.609 -85.432 -11.359 C -85.41 -11.201 -85.142 -11.098 -84.834 -11.047 C -84.284 -10.914 -84.143 -10.727 -83.995 -9.982 C -83.848 -9.24 -83.463 -6.424 -83.373 -5.766 C -83.312 -5.312 -83.41 -4.674 -83.687 -4.336 C -83.906 -4.074 -84.439 -3.746 -84.917 -3.682 C -85.711 -3.574 -86.128 -3.748 -86.477 -3.932 C -86.577 -3.986 -86.73 -4.268 -86.772 -4.4 C -86.847 -4.783 -87.468 -9.67 -87.482 -9.947 C -87.503 -10.268 -87.457 -10.436 -86.784 -10.758 C -86.592 -10.877 -86.432 -11.061 -86.45 -11.197 C -86.472 -11.355 -86.744 -11.48 -87.129 -11.428 C -87.561 -11.369 -88.395 -11.209 -88.872 -11.145 C -89.712 -11.029 -90.606 -10.977 -90.993 -10.924 C -91.378 -10.871 -91.587 -10.705 -91.559 -10.5 C -91.534 -10.318 -91.292 -10.236 -91.033 -10.201 C -90.25 -10.055 -90.111 -9.889 -89.928 -9.057 C -89.767 -8.385 -89.474 -6.576 -89.161 -4.283 C -89.127 -4.033 -89.255 -3.783 -89.692 -3.262 C -89.85 -3.055 -89.908 -2.979 -89.899 -2.91 C -89.88 -2.773 -89.59 -2.512 -89.422 -2.467 C -88.95 -2.391 -87.878 -2.168 -87.491 -2.035 C -87.102 -1.904 -86.785 -1.785 -86.672 -1.801 C -86.581 -1.812 -86.456 -2.084 -86.468 -2.176 C -86.502 -2.424 -86.6 -2.967 -86.627 -3.172 C -86.646 -3.307 -86.484 -3.307 -86.484 -3.307 C -85.483 -2.748 -84.455 -2.334 -83.434 -2.473 C -82.321 -2.625 -81.736 -3.26 -81.469 -3.666 C -81.026 -4.328 -80.867 -5.367 -81.025 -6.525 C -81.091 -7.002 -81.5 -10.346 -81.521 -10.668 C -81.522 -11.014 -81.4 -11.309 -80.832 -11.547 C -80.416 -11.721 -80.272 -11.855 -80.297 -12.037 C -80.322 -12.219 -80.614 -12.316 -80.999 -12.266 M -92.937 -5.912 C -93.316 -7.822 -94.758 -8.961 -95.698 -9.334 C -96.748 -9.803 -97.949 -9.844 -98.982 -9.639 C -99.994 -9.438 -101.158 -8.715 -101.851 -7.854 C -102.661 -6.875 -103.099 -5.314 -102.849 -4.057 C -102.536 -2.482 -101.602 -1.43 -100.604 -.881 C -99.814 -.432 -98.413 .037 -96.749 -.293 C -94.501 -.74 -92.355 -2.99 -92.937 -5.912 M -103.266 2.006 C -103.751 .191 -104.83 -.564 -105.62 -.945 C -106.325 -1.277 -107.678 -1.461 -108.541 -1.23 C -108.785 -1.166 -109.392 -.955 -109.65 -.768 C -109.925 -.553 -110.05 -.4 -109.997 -.201 C -109.973 -.111 -109.782 -.021 -109.605 -.068 C -109.429 -.115 -109.362 -.133 -109.273 -.156 C -108.344 -.406 -106.677 .334 -106.061 2.635 C -105.587 4.404 -106.285 6.582 -108.099 7.068 C -108.298 7.121 -108.644 7.072 -108.75 7.029 C -108.833 6.98 -109.009 6.766 -109.168 6.264 C -109.308 5.826 -110.042 3.084 -110.739 .566 C -111.278 -1.447 -111.619 -2.896 -111.767 -3.449 C -112.106 -4.805 -112.146 -5.221 -110.952 -5.896 C -110.533 -6.104 -110.403 -6.328 -110.457 -6.527 C -110.504 -6.703 -110.916 -6.736 -111.225 -6.652 C -111.8 -6.498 -113.026 -6.029 -114 -5.768 C -114.641 -5.596 -115.749 -5.395 -116.435 -5.211 C -116.944 -5.076 -117.224 -4.881 -117.159 -4.639 C -117.117 -4.484 -116.76 -4.389 -116.521 -4.383 C -115.366 -4.406 -115.012 -4.146 -114.673 -3.146 C -114.37 -2.279 -113.918 -.857 -113.617 .27 C -113.427 .979 -112.101 5.934 -111.974 6.588 C -111.833 7.379 -111.849 7.764 -113.024 8.244 C -113.3 8.365 -113.479 8.58 -113.444 8.711 C -113.397 8.889 -113.162 8.969 -112.885 8.941 C -112.746 8.928 -112.348 8.822 -112.149 8.768 C -110.733 8.389 -108.871 8.08 -107.875 7.814 C -105.751 7.246 -104.42 6.463 -103.75 5.336 C -102.982 4.039 -103.059 2.779 -103.266 2.006 M -63.334 1.455 C -63.129 1.449 -62.771 1.119 -62.66 .955 C -62.152 .254 -61.711 -.422 -61.292 -1.029 C -61.226 -1.123 -61.043 -1.127 -60.994 -1.061 C -60.496 -.385 -60.046 .152 -59.475 .916 C -59.38 1.051 -59.099 1.297 -58.847 1.289 C -58.686 1.285 -58.604 .963 -58.725 .689 C -59.141 -.262 -59.929 -1.479 -60.506 -2.518 C -60.771 -2.969 -61.031 -3.305 -61.238 -3.299 C -61.421 -3.295 -61.663 -2.922 -61.947 -2.363 C -62.162 -1.877 -62.796 -.691 -63.426 .633 C -63.512 .818 -63.724 1.465 -63.334 1.455 M 13.32 19.403 C -6.587 13.828 -29.901 7.942 -55.275 7.942 C -80.409 7.942 -103.674 13.784 -123.554 19.318 L -135.028 -6.826 C -106.336 -16.928 -80.24 -21.84 -55.275 -21.84 C -30.121 -21.84 -3.928 -16.895 24.782 -6.722 Z M -71.179 -5.389 C -70.549 -6.447 -70.46 -7.949 -70.535 -8.908 C -70.637 -10.211 -71.097 -11.393 -71.625 -11.973 C -71.998 -12.334 -72.446 -12.482 -72.674 -12.465 C -73.634 -12.389 -74.623 -11.531 -74.979 -9.895 C -75.117 -9.309 -75.141 -8.434 -75.081 -7.68 C -74.963 -6.172 -74.474 -5.199 -73.91 -4.76 C -73.519 -4.447 -73.141 -4.314 -72.752 -4.346 C -72.113 -4.396 -71.549 -4.83 -71.179 -5.389 M -95.884 -2.17 C -95.384 -3.299 -95.473 -4.799 -95.66 -5.744 C -95.915 -7.025 -96.512 -8.145 -97.104 -8.658 C -97.518 -8.973 -97.98 -9.066 -98.205 -9.023 C -99.149 -8.834 -100.032 -7.865 -100.19 -6.197 C -100.258 -5.6 -100.178 -4.729 -100.031 -3.986 C -99.735 -2.502 -99.134 -1.594 -98.523 -1.225 C -98.097 -.959 -97.706 -.873 -97.324 -.949 C -96.694 -1.074 -96.186 -1.574 -95.884 -2.17 M -35.002 -8.525 C -34.898 -9.828 -35.169 -11.066 -35.6 -11.723 C -35.912 -12.137 -36.332 -12.354 -36.561 -12.371 C -37.52 -12.447 -38.631 -11.754 -39.237 -10.193 C -39.465 -9.637 -39.625 -8.775 -39.684 -8.021 C -39.803 -6.514 -39.471 -5.477 -38.983 -4.955 C -38.645 -4.584 -38.292 -4.395 -37.904 -4.365 C -37.264 -4.314 -36.64 -4.656 -36.188 -5.148 C -35.4 -6.098 -35.077 -7.566 -35.002 -8.525 M 49.076 190.717 C 44.91 187.254 40.52 183.894 37.045 179.792 C 31.586 173.365 26.553 166.54 21.877 159.522 C 19.828 156.441 17.672 155.655 14.414 156.194 C 9.104 157.075 4.416 159.413 -.068 162.247 C -1.977 163.455 -2.965 163.966 -4.822 165.238 C -7.756 167.252 -12.492 170.771 -14.996 173.272 C -14.051 170.594 -8.807 164.896 -6.701 163.295 C .178 158.061 6.648 153.884 15.646 153.047 C 19.166 152.719 22.881 154.032 24.997 157.082 C 25.816 157.937 25.792 158.017 28.824 162.564 C 28.984 162.806 29.145 163.042 29.305 163.277 C 30.156 160.367 31.344 157.09 31.585 154.346 C 32.166 147.666 28.24 143.084 21.417 141.989 C 15.897 141.098 10.51 142.153 5.406 144.093 C -10.996 150.338 -24.137 160.632 -32.844 176.097 C -34.938 179.815 -36.424 183.848 -36.315 188.271 C -36.181 194 -32.895 198.407 -27.252 199.41 C -23.788 200.03 -22.412 200.357 -18.884 199.801 C -16.842 199.48 -15.244 198.528 -15.244 198.528 C -8.865 206.479 -1.795 216.117 1.834 225.812 C 2.42 223.472 3.551 220.953 5.294 218.308 C 9.287 212.252 16.674 206.753 28.287 201.038 L 24.713 203.17 C 16.974 207.871 10.57 213.707 6.683 219.604 C 4.585 222.787 3.397 225.746 3.082 228.361 C 4.506 230.55 6.801 231.364 9.572 231.471 C 14.801 231.676 19.371 229.698 23.801 227.228 C 32.99 222.104 40.998 215.557 47.086 206.957 C 49.107 204.1 50.312 200.588 51.518 197.248 C 52.471 194.614 51.271 192.541 49.076 190.717 M -108.41 17.054 C -112.012 17.979 -117.702 19.625 -121.117 20.573 L -102.877 26.336 L -107.857 16.913 Z M -132.416 4.433 C -144.621 8.375 -154.346 12.935 -162.84 18.493 L -139.021 21.896 L -140.598 40.174 C -129.913 35.045 -117.266 30.886 -103.267 27.964 L -125.242 21.291 Z M -2.656 16.913 L -7.635 26.336 L 10.605 20.573 C 7.189 19.625 1.5 17.979 -2.103 17.054 Z M 14.73 21.291 L -7.246 27.964 C 6.754 30.886 19.4 35.045 30.086 40.174 L 28.51 21.896 L 52.328 18.493 C 43.834 12.935 34.109 8.375 21.904 4.433 Z M -73.096 114.65 C -73.096 114.998 -70.383 123.538 -66.913 132.986 C -63.441 142.446 -60.107 151.572 -59.515 153.265 C -58.915 154.954 -57.648 157.362 -56.295 158.026 L -56.264 114.629 Z M -27.754 44.519 C -29.793 43.323 -31.825 42.983 -37.674 42.849 C -41.777 42.746 -46.491 43.064 -48.336 43.571 C -51.249 44.36 -51.61 44.684 -51.402 46.302 C -50.967 49.657 -47.822 55.604 -45.674 57.128 C -44.51 57.952 -42.342 58.964 -40.844 59.379 C -38.009 60.159 -37.314 59.95 -28.498 55.632 C -22.932 52.906 -22.578 47.546 -27.754 44.519 M -58.255 46.811 C -62.791 49.246 -65.011 51.534 -68.43 57.295 C -70.369 60.552 -73.089 64.413 -74.469 65.88 C -76.523 68.056 -76.991 69.132 -76.991 71.65 C -76.991 75.381 -75.87 78.859 -73.564 82.303 C -72.623 83.702 -71.852 85.099 -71.852 85.396 C -71.852 85.701 -73.811 87.896 -76.203 90.284 C -79.285 93.351 -80.811 95.534 -81.396 97.727 C -82.229 100.798 -82.213 100.842 -79.269 103.552 C -76.551 106.064 -73.376 111.509 -73.334 113.729 C -73.331 113.852 -73.246 114.276 -73.1 114.909 L -121.424 114.909 L -121.891 177.821 L -56.264 177.756 L -56.264 158.38 C -55.297 158.813 -54.582 158.73 -54.582 158.73 C -53.044 158.117 -29.715 147.714 -28.338 146.472 C -27.617 145.821 -27.023 144.481 -27.023 143.506 C -27.023 142.538 -30.148 136.506 -33.965 130.106 C -44.524 112.404 -49.203 103.04 -49.601 98.794 C -49.825 96.372 -49.326 92.728 -48.096 87.826 C -47.082 83.784 -46.049 78.202 -45.796 75.424 C -45.333 70.377 -43.576 65.784 -41.406 63.984 C -39.729 62.589 -39.976 61.909 -42.368 61.389 C -46.982 60.376 -52.543 53.854 -53.815 47.96 C -54.394 45.28 -55.074 45.103 -58.255 46.811 M -79.199 73.39 C -79.199 71.83 -79.457 70.549 -79.777 70.549 C -81.12 70.549 -87.197 75.417 -88.824 77.789 C -90.21 79.818 -90.586 81.316 -90.579 84.831 C -90.579 89.396 -89.147 92.816 -85.567 96.814 L -84.1 98.463 L -82.776 95.513 C -82.055 93.892 -79.958 91.195 -78.119 89.533 C -76.291 87.864 -74.794 86.134 -74.801 85.685 C -74.801 85.244 -75.791 82.937 -77 80.552 C -78.316 77.969 -79.199 75.085 -79.199 73.39 M 12.943 137.118 C 4.379 138.181 -5.789 142.283 -15.415 149.144 C -28.428 158.416 -37.016 170.272 -38.742 179.924 L -54.872 179.924 C -55.168 179.925 -84.85 180.036 -104.384 180.036 C -109.291 180.036 -113.581 180.03 -116.649 180.013 C -118.192 180.004 -119.43 179.991 -120.283 179.978 C -121.928 179.95 -123.951 180.008 -124.06 178.329 L -124.064 171.982 C -124.072 147.804 -124.082 114.69 -122.835 98.335 C -120.032 61.554 -103.205 41.497 -89.583 31.149 C -75.056 20.11 -55.834 16.683 -55.834 16.683 C -55.834 16.683 -37.088 19.22 -22.358 30.809 C .814 49.04 8.92 77.46 11.639 98.093 C 12.861 107.372 13.045 121.681 12.943 137.118 " fill="#120c0d"/>
</g>
</g>
</g>
</svg>
