<?xml version="1.0" encoding="UTF-8" standalone="no"?>
<!DOCTYPE svg PUBLIC "-//W3C//DTD SVG 1.1//EN" "http://www.w3.org/Graphics/SVG/1.1/DTD/svg11.dtd">
<svg xmlns="http://www.w3.org/2000/svg" xmlns:xlink="http://www.w3.org/1999/xlink" version="1.1" width="434.237pt" height="402.929pt" viewBox="0 0 434.237 402.929">
<g enable-background="new">
<g id="Layer-1" data-name="Vrstva 1">
<clipPath id="cp0">
<path transform="matrix(1,0,0,-1,0,402.929)" d="M 0 402.929 L 434.237 402.929 L 434.237 0 L 0 0 Z "/>
</clipPath>
<g clip-path="url(#cp0)">
<path transform="matrix(1,0,0,-1,365.3106,258.41328)" d="M 0 0 C -.185 -18.428 -10.132 -34.688 -24.961 -43.251 L -123.2 -100.077 C -138.022 -108.633 -157.081 -109.112 -173.129 -100.063 L -271.431 -43.251 C -286.252 -34.688 -296.193 -18.428 -296.385 0 L -296.385 113.898 C -296.193 132.319 -286.252 148.587 -271.431 157.143 L -173.129 213.961 C -157.081 223.011 -138.022 222.531 -123.2 213.968 L -24.961 157.143 C -10.132 148.587 -.185 132.319 0 113.898 Z " fill="#00602e" fill-rule="evenodd"/>
<path transform="matrix(1,0,0,-1,140.5645,136.0979)" d="M 0 0 C 21.287 7.698 40.139 3.702 54.269 -7.404 C 55.558 -13.855 58.217 -20.046 62.159 -25.695 C 54.09 -5.999 59.643 16.206 78.564 32.056 C 91.378 21.327 98.041 7.479 98.452 -6.513 C 93.064 -12.039 88.999 -18.935 86.558 -26.854 C 100.125 -2.496 126.039 11.263 157.156 0 C 152.625 -34.875 126.498 -46.063 83.068 -47.77 C 95.148 -33.641 111.697 -20.766 133.752 -10.263 C 113.747 -14.342 94.456 -25.64 80.065 -42.902 C 75.164 -27.511 73.012 -10.907 77.056 9.934 C 69.2 -4.354 68.322 -23.213 73.334 -39.324 C 59.273 -23.741 41.284 -15.631 22.15 -11.367 C 44.198 -21.863 62.008 -33.641 74.088 -47.77 C 30.665 -46.063 4.539 -34.875 0 0 " fill="#c6de89"/>
<path transform="matrix(1,0,0,-1,305.1212,167.83419)" d="M 0 0 C -9.352 -32.111 -44.294 -55.976 -85.976 -55.976 C -127.657 -55.976 -162.607 -32.111 -171.958 0 C -159.769 -15.994 -125.875 -27.511 -85.976 -27.511 C -46.083 -27.511 -12.183 -15.994 0 0 " fill="#ffffff"/>
<path transform="matrix(1,0,0,-1,130.3985,274.88209)" d="M 0 0 C -3.592 0 -6.204 .74 -7.843 2.221 C -9.481 3.695 -10.297 6.115 -10.297 9.461 L -10.297 22.678 L -13.67 22.678 L -13.67 28.834 L -10.297 28.834 L -10.297 36.91 L -1.48 36.91 L -1.48 28.834 L 7.006 28.834 L 7.006 22.678 L -1.48 22.678 L -1.48 12.669 C -1.48 11.668 -1.474 10.818 -1.453 10.077 C -1.433 9.337 -1.302 8.672 -1.056 8.09 C -.823 7.493 -.404 7.026 .192 6.691 C .782 6.341 1.652 6.17 2.791 6.17 C 3.27 6.17 3.887 6.272 4.648 6.472 C 5.423 6.677 5.951 6.862 6.252 7.026 L 7.006 7.026 L 7.006 .802 C 6.054 .562 5.032 .363 3.956 .22 C 2.879 .075 1.57 0 0 0 M 37.753 14.678 C 37.753 10.022 36.479 6.362 33.935 3.675 C 31.398 1.001 27.806 -.343 23.151 -.343 C 18.531 -.343 14.945 1.001 12.381 3.675 C 9.817 6.362 8.542 10.022 8.542 14.678 C 8.542 19.381 9.817 23.062 12.381 25.722 C 14.945 28.382 18.531 29.705 23.151 29.705 C 27.786 29.705 31.378 28.375 33.928 25.708 C 36.479 23.014 37.753 19.347 37.753 14.678 M 28.711 14.63 C 28.711 16.296 28.574 17.708 28.3 18.825 C 28.019 19.942 27.635 20.841 27.141 21.506 C 26.634 22.212 26.038 22.705 25.386 22.979 C 24.735 23.261 23.981 23.404 23.151 23.404 C 22.356 23.404 21.643 23.274 20.999 23.027 C 20.368 22.788 19.778 22.321 19.244 21.636 C 18.736 20.984 18.332 20.08 18.037 18.935 C 17.735 17.79 17.571 16.357 17.571 14.63 C 17.571 12.889 17.729 11.504 18.017 10.427 C 18.297 9.357 18.661 8.515 19.12 7.87 C 19.58 7.219 20.176 6.732 20.875 6.431 C 21.588 6.136 22.363 5.984 23.22 5.984 C 23.926 5.984 24.646 6.136 25.373 6.431 C 26.106 6.732 26.695 7.191 27.121 7.788 C 27.648 8.521 28.039 9.385 28.313 10.406 C 28.574 11.428 28.711 12.833 28.711 14.63 M 69.125 15.089 C 69.125 10.564 67.979 6.931 65.697 4.154 C 63.4 1.392 60.576 0 57.216 0 C 55.804 0 54.584 .157 53.542 .479 C 52.507 .802 51.396 1.289 50.217 1.968 L 50.217 -9.824 L 41.408 -9.824 L 41.408 28.834 L 50.217 28.834 L 50.217 25.88 C 51.506 26.99 52.829 27.895 54.172 28.581 C 55.509 29.267 57.059 29.603 58.828 29.603 C 62.111 29.603 64.648 28.307 66.444 25.708 C 68.227 23.104 69.125 19.565 69.125 15.089 M 60.103 14.896 C 60.103 17.653 59.691 19.661 58.841 20.896 C 57.998 22.144 56.682 22.761 54.878 22.761 C 54.09 22.761 53.302 22.637 52.521 22.383 C 51.739 22.137 50.971 21.753 50.217 21.245 L 50.217 7.02 C 50.69 6.828 51.204 6.677 51.766 6.595 C 52.329 6.52 53 6.472 53.761 6.472 C 55.914 6.472 57.504 7.171 58.546 8.569 C 59.582 9.988 60.103 12.086 60.103 14.896 M 97.054 .556 L 92.323 .556 L 92.323 16.562 C 92.323 17.858 92.262 19.065 92.125 20.176 C 91.994 21.3 91.769 22.191 91.412 22.87 C 91.028 23.569 90.486 24.09 89.794 24.439 C 89.108 24.775 88.162 24.954 86.983 24.954 C 85.797 24.954 84.59 24.639 83.336 24.001 C 82.088 23.377 80.868 22.562 79.675 21.554 L 79.675 .556 L 74.945 .556 L 74.945 28.677 L 79.675 28.677 L 79.675 25.558 C 81.081 26.812 82.472 27.778 83.85 28.443 C 85.228 29.115 86.682 29.451 88.21 29.451 C 90.979 29.451 93.16 28.546 94.702 26.723 C 96.266 24.906 97.054 22.26 97.054 18.798 Z M 119.41 7.473 L 119.41 15.288 C 118.278 15.185 116.866 15.048 115.146 14.883 C 113.418 14.698 112.033 14.444 110.978 14.129 C 109.709 13.745 108.667 13.148 107.852 12.354 C 107.028 11.565 106.617 10.447 106.617 9.015 C 106.617 7.404 107.076 6.17 107.975 5.368 C 108.894 4.538 110.21 4.127 111.958 4.127 C 113.459 4.127 114.803 4.449 116.017 5.101 C 117.216 5.738 118.36 6.533 119.41 7.473 M 119.41 3.537 C 119.025 3.256 118.505 2.858 117.867 2.338 C 117.216 1.837 116.592 1.426 115.982 1.124 C 115.146 .686 114.337 .35 113.555 .116 C 112.773 -.109 111.684 -.227 110.271 -.227 C 109.112 -.227 108.016 -.007 106.974 .425 C 105.938 .856 105.02 1.474 104.231 2.262 C 103.478 3.037 102.874 3.99 102.415 5.128 C 101.963 6.259 101.736 7.452 101.736 8.706 C 101.736 10.66 102.147 12.313 102.977 13.69 C 103.793 15.062 105.103 16.138 106.864 16.954 C 108.454 17.667 110.313 18.167 112.465 18.441 C 114.618 18.723 116.928 18.921 119.41 19.065 L 119.41 19.963 C 119.41 21.081 119.245 21.972 118.902 22.657 C 118.566 23.336 118.101 23.857 117.49 24.234 C 116.887 24.611 116.153 24.865 115.275 24.995 C 114.405 25.125 113.514 25.187 112.596 25.187 C 111.505 25.187 110.21 25.016 108.749 24.7 C 107.269 24.371 105.788 23.892 104.307 23.268 L 104.033 23.268 L 104.033 28.087 C 104.91 28.334 106.151 28.602 107.783 28.902 C 109.407 29.204 111.019 29.362 112.623 29.362 C 114.542 29.362 116.181 29.204 117.497 28.902 C 118.827 28.602 120.02 28.066 121.075 27.278 C 122.097 26.503 122.858 25.502 123.365 24.275 C 123.873 23.055 124.119 21.561 124.119 19.799 L 124.119 .556 L 119.41 .556 Z M 139.277 0 C 136.699 0 134.684 .733 133.244 2.193 C 131.798 3.668 131.071 5.991 131.071 9.159 L 131.071 24.748 L 127.876 24.748 L 127.876 28.677 L 131.071 28.677 L 131.071 36.752 L 135.815 36.752 L 135.815 28.677 L 144.515 28.677 L 144.515 24.748 L 135.815 24.748 L 135.815 11.38 C 135.815 9.954 135.836 8.857 135.884 8.083 C 135.938 7.308 136.123 6.581 136.459 5.909 C 136.747 5.326 137.207 4.881 137.838 4.586 C 138.481 4.291 139.346 4.154 140.442 4.154 C 141.21 4.154 141.958 4.264 142.678 4.49 C 143.397 4.717 143.918 4.908 144.24 5.06 L 144.515 5.06 L 144.515 .802 C 143.63 .556 142.732 .35 141.807 .22 C 140.901 .075 140.059 0 139.277 0 M 169.928 .556 L 165.198 .556 L 165.198 3.668 C 163.737 2.399 162.353 1.426 161.036 .761 C 159.741 .103 158.267 -.227 156.663 -.227 C 155.429 -.227 154.277 -.034 153.2 .377 C 152.117 .768 151.172 1.405 150.355 2.29 C 149.547 3.167 148.93 4.257 148.491 5.587 C 148.045 6.91 147.819 8.521 147.819 10.42 L 147.819 28.677 L 152.55 28.677 L 152.55 12.662 C 152.55 11.161 152.605 9.927 152.714 8.939 C 152.823 7.959 153.07 7.096 153.454 6.362 C 153.845 5.635 154.366 5.114 155.038 4.778 C 155.696 4.436 156.656 4.271 157.89 4.271 C 159.049 4.271 160.289 4.593 161.592 5.251 C 162.901 5.909 164.101 6.712 165.198 7.671 L 165.198 28.677 L 169.928 28.677 Z M 191.688 23.59 L 191.447 23.59 C 191.091 23.692 190.714 23.754 190.31 23.782 C 189.912 23.81 189.438 23.816 188.891 23.816 C 187.615 23.816 186.354 23.542 185.086 22.979 C 183.831 22.432 182.639 21.608 181.514 20.519 L 181.514 .556 L 176.77 .556 L 176.77 28.677 L 181.514 28.677 L 181.514 24.502 C 183.234 26.017 184.757 27.1 186.032 27.73 C 187.32 28.354 188.568 28.677 189.774 28.677 C 190.262 28.677 190.618 28.67 190.865 28.643 L 191.688 28.519 Z " fill="#ffffff"/>
<path transform="matrix(1,0,0,-1,338.6788,249.45529)" d="M 0 0 C 0 -3.455 -2.708 -6.17 -6.231 -6.17 C -9.722 -6.17 -12.512 -3.455 -12.512 0 C -12.512 3.38 -9.722 6.081 -6.231 6.081 C -2.708 6.081 0 3.38 0 0 M -10.948 0 C -10.948 -2.715 -8.946 -4.867 -6.197 -4.867 C -3.524 -4.867 -1.557 -2.715 -1.557 -.041 C -1.557 2.674 -3.524 4.861 -6.231 4.861 C -8.946 4.861 -10.948 2.674 -10.948 0 M -7.205 -3.201 L -8.61 -3.201 L -8.61 2.894 C -8.056 3.003 -7.274 3.078 -6.273 3.078 C -5.121 3.078 -4.601 2.894 -4.154 2.633 C -3.818 2.379 -3.565 1.893 -3.565 1.296 C -3.565 .624 -4.086 .11 -4.826 -.109 L -4.826 -.185 C -4.23 -.411 -3.895 -.856 -3.709 -1.673 C -3.524 -2.604 -3.407 -2.975 -3.264 -3.201 L -4.785 -3.201 C -4.978 -2.975 -5.08 -2.42 -5.272 -1.714 C -5.382 -1.042 -5.759 -.747 -6.526 -.747 L -7.205 -.747 Z M -7.164 .261 L -6.499 .261 C -5.718 .261 -5.08 .515 -5.08 1.146 C -5.08 1.707 -5.491 2.084 -6.383 2.084 C -6.76 2.084 -7.014 2.036 -7.164 2.002 Z " fill="#ffffff"/>
</g>
</g>
</g>
</svg>
