<?xml version="1.0" encoding="UTF-8" standalone="no"?>
<!-- Created with Inkscape (http://www.inkscape.org/) -->

<svg
   version="1.1"
   id="svg2"
   xml:space="preserve"
   width="434.996"
   height="245.43066"
   viewBox="0 0 434.996 245.43066"
   sodipodi:docname="vitar_zakladni_vzor_RGB.ai"
   xmlns:inkscape="http://www.inkscape.org/namespaces/inkscape"
   xmlns:sodipodi="http://sodipodi.sourceforge.net/DTD/sodipodi-0.dtd"
   xmlns="http://www.w3.org/2000/svg"
   xmlns:svg="http://www.w3.org/2000/svg"><defs
     id="defs6"><clipPath
       clipPathUnits="userSpaceOnUse"
       id="clipPath16"><path
         d="M 0,184.073 H 326.247 V 0 H 0 Z"
         id="path14" /></clipPath></defs><sodipodi:namedview
     id="namedview4"
     pagecolor="#ffffff"
     bordercolor="#666666"
     borderopacity="1.0"
     inkscape:pageshadow="2"
     inkscape:pageopacity="0.0"
     inkscape:pagecheckerboard="0" /><g
     id="g8"
     inkscape:groupmode="layer"
     inkscape:label="vitar_zakladni_vzor_RGB"
     transform="matrix(1.3333333,0,0,-1.3333333,0,245.43067)"><g
       id="g10"><g
         id="g12"
         clip-path="url(#clipPath16)"><g
           id="g18"
           transform="translate(209.599,94.1748)"><path
             d="m 0,0 c -0.312,-0.743 -1.342,-4.159 -4.062,-7.683 -0.018,-0.026 -0.037,-0.047 -0.055,-0.071 0,-0.003 -0.002,-0.003 -0.002,-0.009 -0.011,-0.009 -0.022,-0.024 -0.029,-0.034 -0.04,-0.051 -0.079,-0.099 -0.116,-0.146 -0.005,-0.006 -0.007,-0.011 -0.01,-0.016 -2.322,-2.94 -4.644,-4.722 -7.045,-4.722 h -0.008 c -0.313,0 -0.623,0.03 -0.936,0.088 -0.002,0.003 -0.005,0.003 -0.008,0.003 -0.012,0.003 -0.023,0.003 -0.037,0.008 0,0 -3.246,0.455 -3.246,3.561 0,0.873 0.256,1.957 0.916,3.301 3.017,6.124 7.052,7.109 9.134,7.57 0.013,0.003 0.024,0.005 0.034,0.007 0.885,0.193 1.926,0.272 2.866,0.272 h 0.002 0.003 c 1.233,0 2.295,-0.135 2.61,-0.332 h 0.002 c 0.003,0 0.006,-0.003 0.008,-0.005 0.002,0 0.002,-0.003 0.002,-0.003 0.006,0 0.006,0 0.006,-0.003 C 0.253,1.643 0.338,1.435 0.338,1.189 0.341,0.849 0.176,0.433 0,0 m 23.104,8.777 c 0,1.421 -1.361,1.677 -1.361,1.677 0,0 -3.626,0.746 -5.996,1.037 -1.776,0.221 -6.899,0.917 -13.204,0.917 -2.131,0 -4.399,-0.079 -6.716,-0.284 -9.179,-0.806 -17.56,-5.078 -21.254,-8.029 -3.69,-2.953 -9.114,-8.431 -10.448,-16.283 -0.171,-1.004 -0.256,-1.955 -0.256,-2.843 0.006,-6.087 3.968,-9.563 11.98,-10.319 0.681,-0.064 1.339,-0.095 1.975,-0.095 7.933,0 12.289,4.595 12.289,4.595 0.189,0.125 0.415,0.205 0.62,0.205 0.293,0 0.538,-0.167 0.538,-0.621 0,-0.293 -0.101,-0.7 -0.351,-1.255 -0.157,-0.336 -0.219,-0.616 -0.219,-0.848 0.003,-1.084 1.43,-1.112 1.596,-1.112 h 0.013 c 0,0 13.164,0.058 15.228,0.058 2.093,0 2.196,1.498 2.196,1.498 0,0 11.955,27.78 13.061,30.375 0.221,0.528 0.309,0.965 0.309,1.327"
             style="fill:#003da5;fill-opacity:1;fill-rule:nonzero;stroke:none"
             id="path20" /></g><g
           id="g22"
           transform="translate(139.2562,104.4326)"><path
             d="m 0,0 c 0.002,0.797 -0.814,0.826 -0.936,0.826 h -0.016 -18.064 c -2.132,0 -2.373,-1.264 -2.373,-1.264 L -35.88,-32.08 c -0.359,-0.699 -0.49,-1.192 -0.49,-1.544 -0.003,-0.751 0.609,-0.827 0.855,-0.827 0.062,0 0.1,0.004 0.1,0.004 0,0 15.186,-0.059 17.954,-0.059 2.38,0 2.947,1.508 2.947,1.508 0,0 13.492,30.28 14.319,32.206 C -0.059,-0.466 0,-0.207 0,0"
             style="fill:#003da5;fill-opacity:1;fill-rule:nonzero;stroke:none"
             id="path24" /></g><g
           id="g26"
           transform="translate(169.1068,82.9883)"><path
             d="m 0,0 c -0.17,0 -0.287,-0.016 -0.287,-0.016 0,0 -1.736,-0.689 -4.967,-1.198 -0.295,-0.048 -0.556,-0.072 -0.782,-0.072 -1.254,0 -1.534,0.663 -1.534,1.249 0,0.469 0.175,0.889 0.175,0.889 0,0 3.465,8.489 4.274,10.046 0.717,1.373 2.103,1.456 2.418,1.456 0.043,0 0.067,-0.002 0.067,-0.002 0,0 5.538,-0.072 7.048,-0.072 1.49,0 2.026,1.339 2.026,1.339 0,0 2.12,4.788 2.881,6.642 0.139,0.347 0.195,0.637 0.195,0.876 0,1.022 -1.06,1.134 -1.06,1.134 0,0 -5.552,0.061 -7.057,0.061 -0.926,0 -1.102,0.466 -1.099,0.818 0,0.221 0.067,0.396 0.067,0.396 0,0 1.746,4.043 2.652,6.178 0.143,0.328 0.202,0.602 0.202,0.836 -0.002,1.202 -1.632,1.238 -1.84,1.238 H 3.357 -11.548 c -3.036,0 -3.405,-1.381 -3.405,-1.381 l -3.124,-6.752 c 0,0 -0.375,-1.394 -3.342,-1.394 -1.515,0 -1.903,-0.805 -1.903,-0.805 0,0 -2.55,-5.256 -3.529,-7.386 -0.237,-0.514 -0.336,-0.884 -0.336,-1.144 0,-0.52 0.404,-0.616 0.957,-0.616 0.319,0 0.688,0.032 1.054,0.032 0.679,0 0.844,-0.45 0.844,-0.895 0,-0.426 -0.151,-0.844 -0.151,-0.844 0,0 -4.907,-10.629 -6.936,-16.154 -0.272,-0.754 -0.394,-1.436 -0.394,-2.051 0,-3.923 4.971,-5.197 7.617,-5.703 1.63,-0.309 3.867,-0.482 6.29,-0.482 2.127,0 4.4,0.133 6.531,0.428 4.556,0.64 8.209,3.06 8.596,3.465 0.41,0.402 2.878,6.238 3.812,8.194 0.159,0.335 0.224,0.603 0.227,0.822 C 1.26,-0.104 0.45,0 0,0"
             style="fill:#003da5;fill-opacity:1;fill-rule:nonzero;stroke:none"
             id="path28" /></g><g
           id="g30"
           transform="translate(264.6078,81.4678)"><path
             d="m 0,0 c -0.128,-0.128 -0.362,-0.194 -0.695,-0.194 h -0.533 v 1.349 h 0.557 c 0.162,0 0.301,-0.012 0.42,-0.048 L 0.019,0.969 0.159,0.756 0.196,0.506 C 0.196,0.301 0.131,0.13 0,0 m 1.312,-1.707 c -0.122,0.307 -0.26,0.532 -0.428,0.682 -0.173,0.151 -0.352,0.263 -0.54,0.328 0.35,0.09 0.626,0.233 0.841,0.453 0.205,0.209 0.311,0.51 0.311,0.896 0,0.245 -0.048,0.461 -0.133,0.642 C 1.275,1.47 1.145,1.621 0.97,1.75 0.799,1.869 0.588,1.952 0.344,2.011 0.104,2.068 -0.184,2.093 -0.509,2.093 H -1.891 C -2.066,2.093 -2.194,2.045 -2.29,1.94 -2.378,1.845 -2.418,1.707 -2.418,1.531 v -4.327 l 0.12,-0.179 c 0.08,-0.031 0.242,-0.043 0.495,-0.043 0.247,0 0.406,0.012 0.474,0.043 l 0.101,0.179 V -1.11 H -0.9 c 0.266,0 0.463,-0.056 0.591,-0.176 0.136,-0.114 0.247,-0.319 0.346,-0.615 l 0.256,-0.831 0.066,-0.152 0.118,-0.091 0.205,-0.031 0.335,-0.012 c 0.146,0 0.269,0 0.354,0.012 l 0.208,0.022 0.093,0.066 0.011,0.087 c 0,0.046 -0.024,0.163 -0.08,0.352 z"
             style="fill:#003da5;fill-opacity:1;fill-rule:nonzero;stroke:none"
             id="path32" /></g><g
           id="g34"
           transform="translate(111.2093,103.7622)"><path
             d="m 0,0 c 0.144,0.279 0.198,0.513 0.198,0.711 -0.002,0.857 -1.083,1.02 -1.083,1.02 h -9.982 c -1.571,0 -1.904,-0.752 -1.904,-0.752 0,0 -4.8,-9.55 -6.019,-12.426 -1.235,-2.865 -3.219,-5.533 -5.029,-7.051 -1.823,-1.504 -3.042,-1.94 -5.626,-2.899 -0.501,-0.191 -0.908,-0.271 -1.235,-0.271 -1.053,0 -1.308,0.808 -1.308,1.323 0,0.149 0.02,0.271 0.05,0.343 0.17,0.376 8.335,17.715 9.214,19.71 0.158,0.354 0.223,0.645 0.221,0.886 -0.003,1.114 -1.399,1.137 -1.399,1.137 L -41.003,1.647 c -1.725,0 -2.615,-1.1 -2.615,-1.1 0,0 -11.592,-25.251 -12.097,-26.518 -0.505,-1.266 -1.898,-3.966 -1.985,-5.108 -0.009,-0.114 -0.013,-0.226 -0.013,-0.333 -10e-4,-1.773 1.174,-2.444 4.326,-2.834 2.1,-0.265 5.935,-0.486 9.954,-0.486 2.369,0 4.8,0.076 6.984,0.263 5.873,0.517 10.983,1.745 17.659,6.261 6.663,4.527 9.742,9.752 10.766,11.452 C -7.016,-15.073 -0.756,-1.47 0,0"
             style="fill:#003da5;fill-opacity:1;fill-rule:nonzero;stroke:none"
             id="path36" /></g><g
           id="g38"
           transform="translate(275.6126,79.0254)"><path
             d="m 0,0 c -21.51,-27.465 -77.248,-46.171 -132.198,-46.171 -8.585,0 -17.152,0.458 -25.564,1.409 -47.492,5.368 -76.398,24.928 -76.407,48.003 -0.003,7.177 2.791,14.693 8.695,22.227 15.554,19.858 49.008,35.138 87.13,42.078 l 11.644,1.839 c 10.992,1.474 22.242,2.255 33.465,2.255 8.574,0 17.131,-0.459 25.533,-1.404 C -20.215,64.869 8.688,45.303 8.693,22.233 8.699,15.053 5.903,7.533 0,0 M 19.265,35.384 C 14.453,45.783 3.979,54.95 -11.019,61.889 c -14.373,6.655 -33.039,11.305 -53.978,13.449 -8.858,0.906 -18.08,1.363 -27.397,1.363 -11.825,0 -23.854,-0.735 -35.765,-2.18 -2.261,-0.273 -11.875,-1.687 -12.456,-1.78 -20.457,-3.371 -39.837,-8.838 -56.029,-15.812 -17.525,-7.549 -30.859,-16.514 -39.634,-26.648 -11.053,-12.784 -13.883,-26.861 -7.964,-39.642 4.811,-10.396 15.285,-19.555 30.284,-26.5 14.378,-6.654 33.044,-11.301 53.981,-13.445 8.866,-0.904 18.099,-1.37 27.424,-1.373 h 0.003 c 28.691,0 58.596,4.408 84.196,12.408 27.087,8.47 47.72,20.226 59.644,34.019 11.064,12.781 13.894,26.861 7.975,39.636"
             style="fill:#003da5;fill-opacity:1;fill-rule:nonzero;stroke:none"
             id="path40" /></g><g
           id="g42"
           transform="translate(267.4564,79.417)"><path
             d="m 0,0 c -0.173,-0.447 -0.42,-0.841 -0.734,-1.166 -0.318,-0.341 -0.701,-0.599 -1.151,-0.799 -0.45,-0.197 -0.951,-0.293 -1.504,-0.293 -0.511,0 -0.991,0.091 -1.43,0.27 -0.44,0.173 -0.824,0.436 -1.145,0.769 -0.322,0.332 -0.57,0.733 -0.749,1.2 -0.183,0.464 -0.273,0.978 -0.273,1.538 0,0.508 0.085,0.981 0.255,1.429 0.173,0.445 0.42,0.836 0.746,1.171 0.313,0.339 0.703,0.606 1.144,0.8 0.445,0.186 0.948,0.287 1.502,0.287 0.509,0 0.988,-0.091 1.43,-0.264 0.439,-0.18 0.82,-0.433 1.142,-0.764 C -0.444,3.84 -0.191,3.44 -0.014,2.978 0.165,2.515 0.262,1.997 0.262,1.425 0.262,0.919 0.171,0.439 0,0 m 0.024,4.833 c -0.413,0.419 -0.905,0.74 -1.483,0.972 -0.569,0.237 -1.201,0.354 -1.88,0.354 -0.668,0 -1.289,-0.13 -1.866,-0.362 C -5.772,5.558 -6.275,5.219 -6.699,4.799 -7.125,4.38 -7.461,3.883 -7.705,3.311 -7.953,2.745 -8.067,2.128 -8.067,1.468 c 0,-0.677 0.109,-1.308 0.343,-1.872 0.237,-0.578 0.556,-1.066 0.969,-1.479 0.415,-0.412 0.908,-0.736 1.484,-0.971 0.575,-0.237 1.2,-0.352 1.882,-0.352 0.653,0 1.276,0.115 1.853,0.362 0.578,0.245 1.078,0.573 1.51,0.996 0.421,0.421 0.756,0.924 1.001,1.499 0.245,0.571 0.37,1.186 0.37,1.843 0,0.682 -0.117,1.302 -0.352,1.869 -0.234,0.568 -0.556,1.06 -0.969,1.47"
             style="fill:#003da5;fill-opacity:1;fill-rule:nonzero;stroke:none"
             id="path44" /></g><g
           id="g46"
           transform="translate(269.5736,104.9058)"><path
             d="m 0,0 c -4.207,-0.681 -6.354,-2.884 -7.916,-4.033 -0.445,-0.329 -0.777,-0.453 -1.03,-0.453 -0.466,0 -0.632,0.437 -0.632,0.779 0,0.122 0.021,0.23 0.056,0.307 0.173,0.399 0.166,0.399 0.921,2.076 0.11,0.25 0.158,0.463 0.158,0.644 0.002,1.051 -1.545,1.095 -1.545,1.095 h -15.866 c -2.546,0 -2.725,-1.224 -2.725,-1.224 l -13.46,-32.028 c -0.309,-0.671 -0.426,-1.156 -0.426,-1.505 0,-0.724 0.517,-0.861 0.898,-0.861 0.223,0 0.399,0.049 0.399,0.049 h 17.371 c 1.912,0 2.429,1.616 2.655,2.485 0.237,0.862 2.838,7.795 4.982,11.547 2.133,3.752 3.8,5.145 7.434,7.091 2.138,1.156 4.511,1.399 6.524,1.399 1.422,0 2.668,-0.12 3.528,-0.12 2.082,0 2.596,1.437 2.596,1.437 0,0 3.015,7.166 3.989,9.417 0.237,0.543 0.33,0.953 0.33,1.262 0,0.906 -0.796,0.933 -1.036,0.933 H 7.162 C 7.043,0.297 6.209,0.413 4.814,0.413 3.6,0.413 1.962,0.324 0,0"
             style="fill:#003da5;fill-opacity:1;fill-rule:nonzero;stroke:none"
             id="path48" /></g><g
           id="g50"
           transform="translate(148.9291,148.4004)"><path
             d="m 0,0 c 2.691,-1.133 3.86,-3.588 2.673,-6.449 -0.78,-1.873 -2.431,-3.59 -4.513,-4.861 -1.614,-0.939 -2.897,-2.084 -3.788,-3.277 -1.539,-2 0.411,-1.548 1.179,-1.256 1.77,0.666 3.448,1.654 4.81,2.925 H 0.37 c 1.723,1.525 4.058,2.751 6.619,3.33 5.361,1.217 9.733,-0.831 9.751,-4.567 0.03,-3.737 -4.3,-7.754 -9.655,-8.967 -2.566,-0.585 -4.899,-0.414 -6.646,0.328 -1.214,0.563 -2.65,0.81 -4.18,0.776 -2.22,0.018 -2.192,-1.55 -1.587,-2.017 0.897,-0.689 2.103,-1.172 3.587,-1.36 2.093,-0.336 3.767,-1.286 4.571,-2.811 1.683,-3.18 -1.078,-7.628 -6.172,-9.937 -5.09,-2.302 -10.576,-1.607 -12.259,1.576 -0.802,1.527 -0.592,3.331 0.409,5.066 0.834,1.333 1.151,2.647 1.007,3.82 -0.015,0.774 -0.615,1.701 -2.156,0.245 -1.235,-1.23 -2.102,-2.636 -2.408,-4.065 -0.434,-1.735 -1.723,-3.539 -3.799,-5.066 -4.32,-3.183 -10.391,-3.878 -13.56,-1.576 -3.172,2.309 -2.246,6.757 2.073,9.937 2.069,1.519 4.537,2.475 6.906,2.811 2.008,0.233 3.965,0.895 5.678,1.85 0.638,0.36 1.472,1.362 -0.17,1.479 -1.676,0.151 -3.583,-0.075 -5.531,-0.728 -2.359,-0.742 -4.832,-0.913 -6.917,-0.328 -4.351,1.213 -5.346,5.23 -2.214,8.967 3.133,3.736 9.199,5.784 13.548,4.567 2.08,-0.579 3.393,-1.805 3.855,-3.33 0.305,-1.243 1.133,-2.219 2.298,-2.886 1.729,-0.799 2.224,0.35 2.303,1.168 0.124,1.218 -0.216,2.376 -1.061,3.326 v 0.004 c -1.017,1.267 -1.253,2.984 -0.479,4.857 0.737,1.768 2.268,3.366 4.174,4.612 0,0 5.917,3.759 11.645,1.837"
             style="fill:#64c020;fill-opacity:1;fill-rule:nonzero;stroke:none"
             id="path52" /></g></g></g></g></svg>
